<svg xmlns="http://www.w3.org/2000/svg" xmlns:xlink="http://www.w3.org/1999/xlink" width="1209pt" height="657pt" viewBox="0.00 0.00 1209.00 657.00">
<g id="graph0" class="graph" transform="scale(1 1) rotate(0) translate(4 653)">
<polygon fill="white" stroke="transparent" points="-4,4 -4,-653 1205,-653 1205,4 -4,4"/>
<!-- 30 -->
<g id="node1" class="node">
<title>30</title>
<ellipse fill="#ff8800" fill-opacity="0.501961" stroke="#ff8800" stroke-opacity="0.501961" cx="613" cy="-205.5" rx="2" ry="2"/>
<text text-anchor="middle" x="613" y="-205.2" font-family="arial" font-size="1.00" fill="#ff8800" fill-opacity="0.501961">30</text>
</g>
<!-- Fluorescence.Trace -->
<g id="node24" class="node">
<title>Fluorescence.Trace</title>
<g id="a_node24"><a xlink:title="→ Fluorescence→ Segmentation.Mask→ Channel.proj(fluo_channel=&quot;channel&quot;)------------------------------fluorescence         neuropil_fluorescence=null ">
<polygon fill="transparent" stroke="transparent" points="472.5,-77.5 369.5,-77.5 369.5,-58.5 472.5,-58.5 472.5,-77.5"/>
<text text-anchor="middle" x="421" y="-65.5" font-family="arial" font-size="10.00">Fluorescence.Trace</text>
</a>
</g>
</g>
<!-- 30&#45;&gt;Fluorescence.Trace -->
<g id="edge1" class="edge">
<title>30-&gt;Fluorescence.Trace</title>
<path fill="none" stroke="#000000" stroke-width="0.75" stroke-opacity="0.250980" d="M611.44,-204.18C590.67,-199.94 369.09,-154.59 367,-152 357.22,-139.91 360.63,-131.19 367,-117 374.86,-99.49 392.61,-85.77 405.63,-77.56"/>
</g>
<!-- 31 -->
<g id="node2" class="node">
<title>31</title>
<ellipse fill="#ff8800" fill-opacity="0.501961" stroke="#ff8800" stroke-opacity="0.501961" cx="634" cy="-276.5" rx="2" ry="2"/>
<text text-anchor="middle" x="634" y="-276.2" font-family="arial" font-size="1.00" fill="#ff8800" fill-opacity="0.501961">31</text>
</g>
<!-- Segmentation.Mask -->
<g id="node19" class="node">
<title>Segmentation.Mask</title>
<g id="a_node19"><a xlink:title="→ Segmentationmask                 ------------------------------→ Channel.proj(segmentation_channel=&quot;channel&quot;)mask_npix            mask_center_x        mask_center_y        mask_center_z        mask_xpix            mask_ypix            mask_zpix            mask_weights         ">
<polygon fill="transparent" stroke="transparent" points="320,-144 216,-144 216,-125 320,-125 320,-144"/>
<text text-anchor="start" x="224" y="-133" font-family="arial" text-decoration="underline" font-size="10.00">Segmentation.Mask</text>
</a>
</g>
</g>
<!-- 31&#45;&gt;Segmentation.Mask -->
<g id="edge2" class="edge">
<title>31-&gt;Segmentation.Mask</title>
<path fill="none" stroke="#000000" stroke-width="0.75" stroke-dasharray="5,2" stroke-opacity="0.250980" d="M633.14,-274.46C630.72,-271.6 623.56,-263.54 616,-259 513.13,-197.13 374.56,-159.69 307.56,-144.05"/>
</g>
<!-- 32 -->
<g id="node3" class="node">
<title>32</title>
<ellipse fill="#ff8800" fill-opacity="0.501961" stroke="#ff8800" stroke-opacity="0.501961" cx="913" cy="-276.5" rx="2" ry="2"/>
<text text-anchor="middle" x="913" y="-276.2" font-family="arial" font-size="1.00" fill="#ff8800" fill-opacity="0.501961">32</text>
</g>
<!-- MotionCorrection -->
<g id="node18" class="node">
<title>MotionCorrection</title>
<g id="a_node18"><a xlink:title="→ Curation------------------------------→ Channel.proj(motion_correct_channel=&quot;channel&quot;)">
<ellipse fill="#00007f" fill-opacity="0.250980" stroke="#00007f" stroke-opacity="0.250980" cx="942" cy="-205.5" rx="67.5" ry="17.5"/>
<text text-anchor="middle" x="942" y="-202.4" font-family="arial" font-size="12.00" fill="#00007f" fill-opacity="0.627451">MotionCorrection</text>
</a>
</g>
</g>
<!-- 32&#45;&gt;MotionCorrection -->
<g id="edge3" class="edge">
<title>32-&gt;MotionCorrection</title>
<path fill="none" stroke="#000000" stroke-width="0.75" stroke-dasharray="5,2" stroke-opacity="0.250980" d="M913.41,-274.52C915.72,-269.02 927.31,-241.45 935.01,-223.14"/>
</g>
<!-- Subject -->
<g id="node4" class="node">
<title>Subject</title>
<g id="a_node4"><a xlink:title="subject              ------------------------------sex                  subject_birth_date   subject_description=&quot;&quot; ">
<polygon fill="#00ff00" fill-opacity="0.188235" stroke="#00ff00" stroke-opacity="0.188235" points="966.5,-649 909.5,-649 909.5,-614 966.5,-614 966.5,-649"/>
<text text-anchor="start" x="917.5" y="-629.4" font-family="arial" text-decoration="underline" font-size="12.00" fill="darkgreen">Subject</text>
</a>
</g>
</g>
<!-- Session -->
<g id="node5" class="node">
<title>Session</title>
<g id="a_node5"><a xlink:title="→ Subjectsession_datetime     ">
<polygon fill="#00ff00" fill-opacity="0.188235" stroke="#00ff00" stroke-opacity="0.188235" points="968,-578 908,-578 908,-543 968,-543 968,-578"/>
<text text-anchor="start" x="916" y="-558.4" font-family="arial" text-decoration="underline" font-size="12.00" fill="darkgreen">Session</text>
</a>
</g>
</g>
<!-- Subject&#45;&gt;Session -->
<g id="edge4" class="edge">
<title>Subject-&gt;Session</title>
<path fill="none" stroke="#000000" stroke-width="0.75" stroke-opacity="0.250980" d="M938,-613.8C938,-602.95 938,-588.87 938,-578.05"/>
</g>
<!-- Scan -->
<g id="node6" class="node">
<title>Scan</title>
<g id="a_node6"><a xlink:title="→ Sessionscan_id              ------------------------------→ Equipment→ AcquisitionSoftwarescan_notes=&quot;&quot;        ">
<polygon fill="#00ff00" fill-opacity="0.188235" stroke="#00ff00" stroke-opacity="0.188235" points="875,-507 831,-507 831,-472 875,-472 875,-507"/>
<text text-anchor="start" x="839" y="-487.4" font-family="arial" text-decoration="underline" font-size="12.00" fill="darkgreen">Scan</text>
</a>
</g>
</g>
<!-- Session&#45;&gt;Scan -->
<g id="edge5" class="edge">
<title>Session-&gt;Scan</title>
<path fill="none" stroke="#000000" stroke-width="0.75" stroke-opacity="0.250980" d="M917.42,-542.8C904.06,-531.95 886.71,-517.87 873.39,-507.05"/>
</g>
<!-- ScanInfo -->
<g id="node8" class="node">
<title>ScanInfo</title>
<g id="a_node8"><a xlink:title="→ Scan------------------------------nfields              nchannels            ndepths              nframes              nrois                x                    y                    z                    fps                  bidirectional        usecs_per_line=null  fill_fraction=null   ">
<ellipse fill="#00007f" fill-opacity="0.250980" stroke="#00007f" stroke-opacity="0.250980" cx="857" cy="-418.5" rx="40" ry="17.5"/>
<text text-anchor="middle" x="857" y="-415.4" font-family="arial" font-size="12.00" fill="#00007f" fill-opacity="0.627451">ScanInfo</text>
</a>
</g>
</g>
<!-- Scan&#45;&gt;ScanInfo -->
<g id="edge6" class="edge">
<title>Scan-&gt;ScanInfo</title>
<path fill="none" stroke="#000000" stroke-width="2" stroke-opacity="0.250980" d="M853.97,-471.8C854.6,-460.95 855.41,-446.87 856.04,-436.05"/>
</g>
<!-- ProcessingTask -->
<g id="node12" class="node">
<title>ProcessingTask</title>
<g id="a_node12"><a xlink:title="→ Scan→ ProcessingParamSet------------------------------processing_output_dir task_mode=&quot;load&quot;     ">
<polygon fill="#00ff00" fill-opacity="0.188235" stroke="#00ff00" stroke-opacity="0.188235" points="647.5,-436 546.5,-436 546.5,-401 647.5,-401 647.5,-436"/>
<text text-anchor="middle" x="597" y="-415.4" font-family="arial" font-size="12.00" fill="darkgreen">ProcessingTask</text>
</a>
</g>
</g>
<!-- Scan&#45;&gt;ProcessingTask -->
<g id="edge7" class="edge">
<title>Scan-&gt;ProcessingTask</title>
<path fill="none" stroke="#000000" stroke-width="0.75" stroke-opacity="0.250980" d="M830.73,-482.5C790.16,-471.56 703.28,-448.14 647.62,-433.14"/>
</g>
<!-- ScanInfo.Field -->
<g id="node7" class="node">
<title>ScanInfo.Field</title>
<g id="a_node7"><a xlink:title="→ ScanInfofield_idx            ------------------------------px_height            px_width             um_height=null       um_width=null        field_x              field_y              field_z              delay_image=null     roi=null             ">
<polygon fill="transparent" stroke="transparent" points="897,-357 817,-357 817,-338 897,-338 897,-357"/>
<text text-anchor="start" x="825" y="-346" font-family="arial" text-decoration="underline" font-size="10.00">ScanInfo.Field</text>
</a>
</g>
</g>
<!-- MotionCorrection.Summary -->
<g id="node14" class="node">
<title>MotionCorrection.Summary</title>
<g id="a_node14"><a xlink:title="→ MotionCorrection→ ScanInfo.Field------------------------------ref_image            average_image        correlation_image=null max_proj_image=null  ">
<polygon fill="transparent" stroke="transparent" points="1201,-144 1065,-144 1065,-125 1201,-125 1201,-144"/>
<text text-anchor="middle" x="1133" y="-132" font-family="arial" font-size="10.00">MotionCorrection.Summary</text>
</a>
</g>
</g>
<!-- ScanInfo.Field&#45;&gt;MotionCorrection.Summary -->
<g id="edge8" class="edge">
<title>ScanInfo.Field-&gt;MotionCorrection.Summary</title>
<path fill="none" stroke="#000000" stroke-width="0.75" stroke-opacity="0.250980" d="M869.44,-337.95C884.25,-327.7 909.67,-309.92 931,-294 1005.3,-238.54 1092.22,-168.57 1122.2,-144.28"/>
</g>
<!-- ScanInfo&#45;&gt;ScanInfo.Field -->
<g id="edge9" class="edge">
<title>ScanInfo-&gt;ScanInfo.Field</title>
<path fill="none" stroke="#000000" stroke-width="0.75" stroke-opacity="0.250980" d="M857,-400.8C857,-387.08 857,-368.19 857,-357.27"/>
</g>
<!-- Channel -->
<g id="node9" class="node">
<title>Channel</title>
<g id="a_node9"><a xlink:title="channel              ">
<polygon fill="#000000" fill-opacity="0.125490" stroke="transparent" points="697.5,-365 644.5,-365 644.5,-330 697.5,-330 697.5,-365"/>
<text text-anchor="start" x="652.5" y="-346" font-family="arial" text-decoration="underline" font-size="10.00">Channel</text>
</a>
</g>
</g>
<!-- Channel&#45;&gt;30 -->
<g id="edge10" class="edge">
<title>Channel-&gt;30</title>
<path fill="none" stroke="#000000" stroke-width="0.75" stroke-opacity="0.250980" d="M669.49,-329.71C667.38,-311.59 662.54,-282.21 652,-259 641.48,-235.84 619.51,-213.02 614.18,-207.67"/>
</g>
<!-- Channel&#45;&gt;31 -->
<g id="edge11" class="edge">
<title>Channel-&gt;31</title>
<path fill="none" stroke="#000000" stroke-width="0.75" stroke-dasharray="5,2" stroke-opacity="0.250980" d="M662.04,-329.8C652.46,-311.93 638.18,-285.29 634.76,-278.91"/>
</g>
<!-- Channel&#45;&gt;32 -->
<g id="edge12" class="edge">
<title>Channel-&gt;32</title>
<path fill="none" stroke="#000000" stroke-width="0.75" stroke-dasharray="5,2" stroke-opacity="0.250980" d="M697.82,-338.85C756.89,-322.01 894.33,-282.82 911.28,-277.99"/>
</g>
<!-- AcquisitionSoftware -->
<g id="node10" class="node">
<title>AcquisitionSoftware</title>
<g id="a_node10"><a xlink:title="acq_software         ">
<polygon fill="#000000" fill-opacity="0.125490" stroke="transparent" points="798,-578 694,-578 694,-543 798,-543 798,-578"/>
<text text-anchor="start" x="702" y="-559" font-family="arial" text-decoration="underline" font-size="10.00">AcquisitionSoftware</text>
</a>
</g>
</g>
<!-- AcquisitionSoftware&#45;&gt;Scan -->
<g id="edge13" class="edge">
<title>AcquisitionSoftware-&gt;Scan</title>
<path fill="none" stroke="#000000" stroke-width="0.75" stroke-dasharray="5,2" stroke-opacity="0.250980" d="M771.63,-542.97C789.68,-531.33 813.61,-515.9 830.84,-504.79"/>
</g>
<!-- Equipment -->
<g id="node11" class="node">
<title>Equipment</title>
<g id="a_node11"><a xlink:title="scanner              ">
<polygon fill="#00ff00" fill-opacity="0.188235" stroke="#00ff00" stroke-opacity="0.188235" points="890,-578 816,-578 816,-543 890,-543 890,-578"/>
<text text-anchor="start" x="824" y="-558.4" font-family="arial" text-decoration="underline" font-size="12.00" fill="darkgreen">Equipment</text>
</a>
</g>
</g>
<!-- Equipment&#45;&gt;Scan -->
<g id="edge14" class="edge">
<title>Equipment-&gt;Scan</title>
<path fill="none" stroke="#000000" stroke-width="0.75" stroke-dasharray="5,2" stroke-opacity="0.250980" d="M853,-542.8C853,-531.95 853,-517.87 853,-507.05"/>
</g>
<!-- Processing -->
<g id="node21" class="node">
<title>Processing</title>
<g id="a_node21"><a xlink:title="→ ProcessingTask------------------------------processing_time      package_version=&quot;&quot;   ">
<ellipse fill="#ff0000" fill-opacity="0.125490" stroke="#ff0000" stroke-opacity="0.125490" cx="582" cy="-347.5" rx="13" ry="13"/>
<text text-anchor="middle" x="582" y="-344.4" font-family="arial" font-size="12.00" fill="#7f0000" fill-opacity="0.627451">Processing</text>
</a>
</g>
</g>
<!-- ProcessingTask&#45;&gt;Processing -->
<g id="edge15" class="edge">
<title>ProcessingTask-&gt;Processing</title>
<path fill="none" stroke="#000000" stroke-width="2" stroke-opacity="0.250980" d="M593.37,-400.8C590.66,-388.35 587.03,-371.66 584.61,-360.51"/>
</g>
<!-- Curation -->
<g id="node13" class="node">
<title>Curation</title>
<g id="a_node13"><a xlink:title="→ Processingcuration_id          ------------------------------curation_time        curation_output_dir  manual_curation      curation_note=&quot;&quot;     ">
<polygon fill="#00ff00" fill-opacity="0.188235" stroke="#00ff00" stroke-opacity="0.188235" points="607,-294 545,-294 545,-259 607,-259 607,-294"/>
<text text-anchor="start" x="553" y="-274.4" font-family="arial" text-decoration="underline" font-size="12.00" fill="darkgreen">Curation</text>
</a>
</g>
</g>
<!-- Curation&#45;&gt;MotionCorrection -->
<g id="edge16" class="edge">
<title>Curation-&gt;MotionCorrection</title>
<path fill="none" stroke="#000000" stroke-width="2" stroke-opacity="0.250980" d="M607.2,-261.83C610.14,-260.78 613.11,-259.82 616,-259 705.78,-233.62 813.17,-219.29 879.48,-212.22"/>
</g>
<!-- Segmentation -->
<g id="node20" class="node">
<title>Segmentation</title>
<g id="a_node20"><a xlink:title="→ Curation">
<ellipse fill="#ff0000" fill-opacity="0.125490" stroke="#ff0000" stroke-opacity="0.125490" cx="268" cy="-205.5" rx="13" ry="13"/>
<text text-anchor="middle" x="268" y="-202.4" font-family="arial" font-size="12.00" fill="#7f0000" fill-opacity="0.627451">Segmentation</text>
</a>
</g>
</g>
<!-- Curation&#45;&gt;Segmentation -->
<g id="edge17" class="edge">
<title>Curation-&gt;Segmentation</title>
<path fill="none" stroke="#000000" stroke-width="2" stroke-opacity="0.250980" d="M544.77,-268.5C478.4,-253.63 325.68,-219.42 280.69,-209.34"/>
</g>
<!-- MotionCorrection.RigidMotionCorrection -->
<g id="node15" class="node">
<title>MotionCorrection.RigidMotionCorrection</title>
<g id="a_node15"><a xlink:title="→ MotionCorrection------------------------------outlier_frames=null  y_shifts             x_shifts             z_shifts=null        y_std                x_std                z_std=null           ">
<polygon fill="transparent" stroke="transparent" points="674.5,-144 483.5,-144 483.5,-125 674.5,-125 674.5,-144"/>
<text text-anchor="middle" x="579" y="-132" font-family="arial" font-size="10.00">MotionCorrection.RigidMotionCorrection</text>
</a>
</g>
</g>
<!-- MotionCorrection.NonRigidMotionCorrection -->
<g id="node16" class="node">
<title>MotionCorrection.NonRigidMotionCorrection</title>
<g id="a_node16"><a xlink:title="→ MotionCorrection------------------------------outlier_frames=null  block_height         block_width          block_depth          block_count_y        block_count_x        block_count_z        ">
<polygon fill="transparent" stroke="transparent" points="1046.5,-144 837.5,-144 837.5,-125 1046.5,-125 1046.5,-144"/>
<text text-anchor="middle" x="942" y="-132" font-family="arial" font-size="10.00">MotionCorrection.NonRigidMotionCorrection</text>
</a>
</g>
</g>
<!-- MotionCorrection.Block -->
<g id="node17" class="node">
<title>MotionCorrection.Block</title>
<g id="a_node17"><a xlink:title="→ MotionCorrection.NonRigidMotionCorrectionblock_id             ------------------------------block_y              block_x              block_z              y_shifts             x_shifts             z_shifts=null        y_std                x_std                z_std=null           ">
<polygon fill="transparent" stroke="transparent" points="1001.5,-77.5 882.5,-77.5 882.5,-58.5 1001.5,-58.5 1001.5,-77.5"/>
<text text-anchor="start" x="890.5" y="-66.5" font-family="arial" text-decoration="underline" font-size="10.00">MotionCorrection.Block</text>
</a>
</g>
</g>
<!-- MotionCorrection.NonRigidMotionCorrection&#45;&gt;MotionCorrection.Block -->
<g id="edge18" class="edge">
<title>MotionCorrection.NonRigidMotionCorrection-&gt;MotionCorrection.Block</title>
<path fill="none" stroke="#000000" stroke-width="0.75" stroke-opacity="0.250980" d="M942,-124.8C942,-112.42 942,-89.86 942,-77.56"/>
</g>
<!-- MotionCorrection&#45;&gt;MotionCorrection.Summary -->
<g id="edge19" class="edge">
<title>MotionCorrection-&gt;MotionCorrection.Summary</title>
<path fill="none" stroke="#000000" stroke-width="0.75" stroke-opacity="0.250980" d="M979.74,-190.87C1018.22,-176.96 1076.76,-155.82 1109.22,-144.09"/>
</g>
<!-- MotionCorrection&#45;&gt;MotionCorrection.RigidMotionCorrection -->
<g id="edge20" class="edge">
<title>MotionCorrection-&gt;MotionCorrection.RigidMotionCorrection</title>
<path fill="none" stroke="#000000" stroke-width="2" stroke-opacity="0.250980" d="M889.22,-194.47C817.64,-180.86 691.04,-156.8 623.84,-144.02"/>
</g>
<!-- MotionCorrection&#45;&gt;MotionCorrection.NonRigidMotionCorrection -->
<g id="edge21" class="edge">
<title>MotionCorrection-&gt;MotionCorrection.NonRigidMotionCorrection</title>
<path fill="none" stroke="#000000" stroke-width="2" stroke-opacity="0.250980" d="M942,-187.8C942,-174.08 942,-155.19 942,-144.27"/>
</g>
<!-- MaskClassification.MaskType -->
<g id="node22" class="node">
<title>MaskClassification.MaskType</title>
<g id="a_node22"><a xlink:title="→ MaskClassification→ Segmentation.Mask------------------------------→ MaskTypeconfidence=null      ">
<polygon fill="transparent" stroke="transparent" points="213,-77.5 65,-77.5 65,-58.5 213,-58.5 213,-77.5"/>
<text text-anchor="middle" x="139" y="-65.5" font-family="arial" font-size="10.00">MaskClassification.MaskType</text>
</a>
</g>
</g>
<!-- Segmentation.Mask&#45;&gt;MaskClassification.MaskType -->
<g id="edge22" class="edge">
<title>Segmentation.Mask-&gt;MaskClassification.MaskType</title>
<path fill="none" stroke="#000000" stroke-width="0.75" stroke-opacity="0.250980" d="M250.87,-124.93C226.2,-112.6 180.91,-89.96 156.2,-77.6"/>
</g>
<!-- Segmentation.Mask&#45;&gt;Fluorescence.Trace -->
<g id="edge23" class="edge">
<title>Segmentation.Mask-&gt;Fluorescence.Trace</title>
<path fill="none" stroke="#000000" stroke-width="0.75" stroke-opacity="0.250980" d="M288.32,-124.93C317.58,-112.6 371.29,-89.96 400.6,-77.6"/>
</g>
<!-- Segmentation&#45;&gt;Segmentation.Mask -->
<g id="edge24" class="edge">
<title>Segmentation-&gt;Segmentation.Mask</title>
<path fill="none" stroke="#000000" stroke-width="0.75" stroke-opacity="0.250980" d="M268,-192.48C268,-178.74 268,-156.56 268,-144.32"/>
</g>
<!-- MaskClassification -->
<g id="node23" class="node">
<title>MaskClassification</title>
<g id="a_node23"><a xlink:title="→ Segmentation→ MaskClassificationMethod">
<ellipse fill="#ff0000" fill-opacity="0.125490" stroke="#ff0000" stroke-opacity="0.125490" cx="139" cy="-134.5" rx="13" ry="13"/>
<text text-anchor="middle" x="139" y="-131.4" font-family="arial" font-size="12.00" fill="#7f0000" fill-opacity="0.627451">MaskClassification</text>
</a>
</g>
</g>
<!-- Segmentation&#45;&gt;MaskClassification -->
<g id="edge25" class="edge">
<title>Segmentation-&gt;MaskClassification</title>
<path fill="none" stroke="#000000" stroke-width="0.75" stroke-opacity="0.250980" d="M256.55,-198.38C232.01,-185.25 174.59,-154.54 150.24,-141.51"/>
</g>
<!-- Fluorescence -->
<g id="node25" class="node">
<title>Fluorescence</title>
<g id="a_node25"><a xlink:title="→ Segmentation">
<ellipse fill="#ff0000" fill-opacity="0.125490" stroke="#ff0000" stroke-opacity="0.125490" cx="421" cy="-134.5" rx="13" ry="13"/>
<text text-anchor="middle" x="421" y="-131.4" font-family="arial" font-size="12.00" fill="#7f0000" fill-opacity="0.627451">Fluorescence</text>
</a>
</g>
</g>
<!-- Segmentation&#45;&gt;Fluorescence -->
<g id="edge26" class="edge">
<title>Segmentation-&gt;Fluorescence</title>
<path fill="none" stroke="#000000" stroke-width="2" stroke-opacity="0.250980" d="M279.5,-199.31C307.85,-186.53 380.87,-153.6 409.37,-140.75"/>
</g>
<!-- Processing&#45;&gt;Curation -->
<g id="edge27" class="edge">
<title>Processing-&gt;Curation</title>
<path fill="none" stroke="#000000" stroke-width="0.75" stroke-opacity="0.250980" d="M580.95,-334.48C579.98,-323.28 578.52,-306.49 577.44,-294.03"/>
</g>
<!-- MaskClassification&#45;&gt;MaskClassification.MaskType -->
<g id="edge28" class="edge">
<title>MaskClassification-&gt;MaskClassification.MaskType</title>
<path fill="none" stroke="#000000" stroke-width="0.75" stroke-opacity="0.250980" d="M139,-121.37C139,-108.67 139,-89.04 139,-77.77"/>
</g>
<!-- Activity.Trace -->
<g id="node26" class="node">
<title>Activity.Trace</title>
<g id="a_node26"><a xlink:title="→ Activity→ Fluorescence.Trace------------------------------activity_trace       ">
<polygon fill="transparent" stroke="transparent" points="556.5,-19 479.5,-19 479.5,0 556.5,0 556.5,-19"/>
<text text-anchor="middle" x="518" y="-7" font-family="arial" font-size="10.00">Activity.Trace</text>
</a>
</g>
</g>
<!-- Fluorescence.Trace&#45;&gt;Activity.Trace -->
<g id="edge29" class="edge">
<title>Fluorescence.Trace-&gt;Activity.Trace</title>
<path fill="none" stroke="#000000" stroke-width="0.75" stroke-opacity="0.250980" d="M435.73,-58.42C453.96,-47.8 484.83,-29.82 503.13,-19.16"/>
</g>
<!-- Fluorescence&#45;&gt;Fluorescence.Trace -->
<g id="edge30" class="edge">
<title>Fluorescence-&gt;Fluorescence.Trace</title>
<path fill="none" stroke="#000000" stroke-width="0.75" stroke-opacity="0.250980" d="M421,-121.37C421,-108.67 421,-89.04 421,-77.77"/>
</g>
<!-- Activity -->
<g id="node27" class="node">
<title>Activity</title>
<g id="a_node27"><a xlink:title="→ Fluorescence→ ActivityExtractionMethod">
<ellipse fill="#ff0000" fill-opacity="0.125490" stroke="#ff0000" stroke-opacity="0.125490" cx="518" cy="-68" rx="13" ry="13"/>
<text text-anchor="middle" x="518" y="-64.9" font-family="arial" font-size="12.00" fill="#7f0000" fill-opacity="0.627451">Activity</text>
</a>
</g>
</g>
<!-- Fluorescence&#45;&gt;Activity -->
<g id="edge31" class="edge">
<title>Fluorescence-&gt;Activity</title>
<path fill="none" stroke="#000000" stroke-width="0.75" stroke-opacity="0.250980" d="M431.38,-126.6C449.95,-114.25 488.67,-88.5 507.4,-76.05"/>
</g>
<!-- Activity&#45;&gt;Activity.Trace -->
<g id="edge32" class="edge">
<title>Activity-&gt;Activity.Trace</title>
<path fill="none" stroke="#000000" stroke-width="0.75" stroke-opacity="0.250980" d="M518,-54.74C518,-43.97 518,-28.56 518,-19.06"/>
</g>
<!-- ProcessingParamSet -->
<g id="node28" class="node">
<title>ProcessingParamSet</title>
<g id="a_node28"><a xlink:title="paramset_idx         ------------------------------→ ProcessingMethodparamset_desc        param_set_hash       params               UNIQUE INDEX (param_set_hash)">
<polygon fill="#000000" fill-opacity="0.125490" stroke="transparent" points="651.5,-507 542.5,-507 542.5,-472 651.5,-472 651.5,-507"/>
<text text-anchor="start" x="550.5" y="-488" font-family="arial" text-decoration="underline" font-size="10.00">ProcessingParamSet</text>
</a>
</g>
</g>
<!-- ProcessingParamSet&#45;&gt;ProcessingTask -->
<g id="edge33" class="edge">
<title>ProcessingParamSet-&gt;ProcessingTask</title>
<path fill="none" stroke="#000000" stroke-width="0.75" stroke-opacity="0.250980" d="M597,-471.8C597,-460.95 597,-446.87 597,-436.05"/>
</g>
<!-- ProcessingMethod -->
<g id="node29" class="node">
<title>ProcessingMethod</title>
<g id="a_node29"><a xlink:title="processing_method    ------------------------------processing_method_desc ">
<polygon fill="#000000" fill-opacity="0.125490" stroke="transparent" points="646,-578 548,-578 548,-543 646,-543 646,-578"/>
<text text-anchor="start" x="556" y="-559" font-family="arial" text-decoration="underline" font-size="10.00">ProcessingMethod</text>
</a>
</g>
</g>
<!-- ProcessingMethod&#45;&gt;ProcessingParamSet -->
<g id="edge34" class="edge">
<title>ProcessingMethod-&gt;ProcessingParamSet</title>
<path fill="none" stroke="#000000" stroke-width="0.75" stroke-dasharray="5,2" stroke-opacity="0.250980" d="M597,-542.8C597,-531.95 597,-517.87 597,-507.05"/>
</g>
<!-- MaskType -->
<g id="node30" class="node">
<title>MaskType</title>
<g id="a_node30"><a xlink:title="mask_type            ">
<polygon fill="#000000" fill-opacity="0.125490" stroke="transparent" points="62,-152 0,-152 0,-117 62,-117 62,-152"/>
<text text-anchor="start" x="8" y="-133" font-family="arial" text-decoration="underline" font-size="10.00">MaskType</text>
</a>
</g>
</g>
<!-- MaskType&#45;&gt;MaskClassification.MaskType -->
<g id="edge35" class="edge">
<title>MaskType-&gt;MaskClassification.MaskType</title>
<path fill="none" stroke="#000000" stroke-width="0.75" stroke-dasharray="5,2" stroke-opacity="0.250980" d="M58.81,-116.89C79.81,-104.35 107.78,-87.64 124.53,-77.64"/>
</g>
<!-- MaskClassificationMethod -->
<g id="node31" class="node">
<title>MaskClassificationMethod</title>
<g id="a_node31"><a xlink:title="mask_classification_method ">
<polygon fill="#000000" fill-opacity="0.125490" stroke="transparent" points="204,-223 72,-223 72,-188 204,-188 204,-223"/>
<text text-anchor="start" x="80" y="-204" font-family="arial" text-decoration="underline" font-size="10.00">MaskClassificationMethod</text>
</a>
</g>
</g>
<!-- MaskClassificationMethod&#45;&gt;MaskClassification -->
<g id="edge36" class="edge">
<title>MaskClassificationMethod-&gt;MaskClassification</title>
<path fill="none" stroke="#000000" stroke-width="0.75" stroke-opacity="0.250980" d="M138.24,-187.8C138.42,-175.35 138.66,-158.66 138.83,-147.51"/>
</g>
<!-- ActivityExtractionMethod -->
<g id="node32" class="node">
<title>ActivityExtractionMethod</title>
<g id="a_node32"><a xlink:title="extraction_method    ">
<polygon fill="#000000" fill-opacity="0.125490" stroke="transparent" points="819,-152 693,-152 693,-117 819,-117 819,-152"/>
<text text-anchor="start" x="701" y="-133" font-family="arial" text-decoration="underline" font-size="10.00">ActivityExtractionMethod</text>
</a>
</g>
</g>
<!-- ActivityExtractionMethod&#45;&gt;Activity -->
<g id="edge37" class="edge">
<title>ActivityExtractionMethod-&gt;Activity</title>
<path fill="none" stroke="#000000" stroke-width="0.75" stroke-opacity="0.250980" d="M695.02,-116.97C639.1,-101.82 560.56,-80.53 530.43,-72.37"/>
</g>
</g>
</svg>