<svg height="577pt" viewBox="0.00 0.00 685.50 577.00" width="686pt" xmlns="http://www.w3.org/2000/svg" xmlns:xlink="http://www.w3.org/1999/xlink">
<g class="graph" id="graph0" transform="scale(1 1) rotate(0) translate(4 573)">
<title>%3</title>
<polygon fill="white" points="-4,4 -4,-573 681.5,-573 681.5,4 -4,4" stroke="none"/>
<!-- 16 -->
<g class="node" id="node1"><title>16</title>
<ellipse cx="190.5" cy="-201" fill="#ff8800" fill-opacity="0.501961" rx="2" ry="2" stroke="#ff8800" stroke-opacity="0.501961"/>
<text fill="#ff8800" font-family="arial" font-size="1.00" text-anchor="middle" x="190.5" y="-200.7">16</text>
</g>
<!-- Segmentation.Mask -->
<g class="node" id="node13"><title>Segmentation.Mask</title>
<g id="a_node13"><a xlink:title="→ Segmentation
mask                 
------------------------------
→ Channel.proj(seg_channel=&quot;channel&quot;)
mask_npix            
mask_center_x        
mask_center_y        
mask_center_z        
mask_xpix            
mask_ypix            
mask_zpix            
mask_weights         
">
<polygon fill="none" points="448.5,-144 344.5,-144 344.5,-125 448.5,-125 448.5,-144" stroke="none"/>
<text font-family="arial" font-size="10.00" text-anchor="start" text-decoration="underline" x="352.5" y="-133">Segmentation.Mask</text>
</a>
</g>
</g>
<!-- 16&#45;&gt;Segmentation.Mask -->
<g class="edge" id="edge1"><title>16-&gt;Segmentation.Mask</title>
<path d="M192.084,-198.689C195.098,-196.254 201.946,-191.007 208.5,-188 254.855,-166.732 311.682,-152.326 350.648,-144.064" fill="none" stroke="#000000" stroke-dasharray="5,2" stroke-opacity="0.250980" stroke-width="0.75"/>
</g>
<!-- 15 -->
<g class="node" id="node2"><title>15</title>
<ellipse cx="153.5" cy="-267.5" fill="#ff8800" fill-opacity="0.501961" rx="2" ry="2" stroke="#ff8800" stroke-opacity="0.501961"/>
<text fill="#ff8800" font-family="arial" font-size="1.00" text-anchor="middle" x="153.5" y="-267.2">15</text>
</g>
<!-- Fluorescence.Trace -->
<g class="node" id="node7"><title>Fluorescence.Trace</title>
<g id="a_node7"><a xlink:title="→ Fluorescence
→ Segmentation.Mask
→ Channel.proj(fluo_channel=&quot;channel&quot;)
------------------------------
fluorescence         
neuropil_fluorescence=null 
">
<polygon fill="none" points="295.5,-77.5 193.5,-77.5 193.5,-58.5 295.5,-58.5 295.5,-77.5" stroke="none"/>
<text font-family="arial" font-size="10.00" text-anchor="middle" x="244.5" y="-65.5">Fluorescence.Trace</text>
</a>
</g>
</g>
<!-- 15&#45;&gt;Fluorescence.Trace -->
<g class="edge" id="edge2"><title>15-&gt;Fluorescence.Trace</title>
<path d="M153.534,-265.464C153.915,-255.253 158.006,-171.855 191.5,-117 201.592,-100.472 219.065,-86.2629 231.176,-77.6845" fill="none" stroke="#000000" stroke-opacity="0.250980" stroke-width="0.75"/>
</g>
<!-- 17 -->
<g class="node" id="node3"><title>17</title>
<ellipse cx="227.5" cy="-338.5" fill="#ff8800" fill-opacity="0.501961" rx="2" ry="2" stroke="#ff8800" stroke-opacity="0.501961"/>
<text fill="#ff8800" font-family="arial" font-size="1.00" text-anchor="middle" x="227.5" y="-338.2">17</text>
</g>
<!-- MotionCorrection -->
<g class="node" id="node12"><title>MotionCorrection</title>
<g id="a_node12"><a xlink:title="→ Processing
------------------------------
→ Channel.proj(mc_channel=&quot;channel&quot;)
">
<ellipse cx="392.5" cy="-267.5" fill="#00007f" fill-opacity="0.250980" rx="66.7502" ry="17.5" stroke="#00007f" stroke-opacity="0.250980"/>
<text fill="#00007f" font-family="arial" font-size="12.00" text-anchor="middle" x="392.5" y="-264.4">MotionCorrection</text>
</a>
</g>
</g>
<!-- 17&#45;&gt;MotionCorrection -->
<g class="edge" id="edge3"><title>17-&gt;MotionCorrection</title>
<path d="M228.365,-336.457C230.785,-333.6 237.948,-325.552 245.5,-321 276.716,-302.183 315.708,-288.646 345.688,-280.036" fill="none" stroke="#000000" stroke-dasharray="5,2" stroke-opacity="0.250980" stroke-width="0.75"/>
</g>
<!-- MotionCorrection.Summary -->
<g class="node" id="node4"><title>MotionCorrection.Summary</title>
<g id="a_node4"><a xlink:title="→ MotionCorrection
→ Processing.Field
------------------------------
ref_image            
average_image        
correlation_image=null 
max_proj_image=null  
">
<polygon fill="none" points="353,-210.5 218,-210.5 218,-191.5 353,-191.5 353,-210.5" stroke="none"/>
<text font-family="arial" font-size="10.00" text-anchor="middle" x="285.5" y="-198.5">MotionCorrection.Summary</text>
</a>
</g>
</g>
<!-- ActivityExtractionMethod -->
<g class="node" id="node5"><title>ActivityExtractionMethod</title>
<g id="a_node5"><a xlink:title="extraction_method    
">
<polygon fill="#000000" fill-opacity="0.125490" points="125,-152 0,-152 0,-117 125,-117 125,-152" stroke="none"/>
<text font-family="arial" font-size="10.00" text-anchor="start" text-decoration="underline" x="8" y="-133">ActivityExtractionMethod</text>
</a>
</g>
</g>
<!-- Activity -->
<g class="node" id="node23"><title>Activity</title>
<g id="a_node23"><a xlink:title="→ Fluorescence
→ ActivityExtractionMethod
">
<ellipse cx="148.5" cy="-68" fill="#ff0000" fill-opacity="0.125490" rx="13" ry="13" stroke="#ff0000" stroke-opacity="0.125490"/>
<text fill="#7f0000" font-family="arial" font-size="12.00" text-anchor="middle" x="148.5" y="-64.9">Activity</text>
</a>
</g>
</g>
<!-- ActivityExtractionMethod&#45;&gt;Activity -->
<g class="edge" id="edge4"><title>ActivityExtractionMethod-&gt;Activity</title>
<path d="M84.6471,-116.89C101.966,-103.9 125.241,-86.4445 138.374,-76.5946" fill="none" stroke="#000000" stroke-opacity="0.250980" stroke-width="0.75"/>
</g>
<!-- MaskClassification.MaskType -->
<g class="node" id="node6"><title>MaskClassification.MaskType</title>
<g id="a_node6"><a xlink:title="→ MaskClassification
→ Segmentation.Mask
------------------------------
→ MaskType
confidence=null      
">
<polygon fill="none" points="677.5,-77.5 531.5,-77.5 531.5,-58.5 677.5,-58.5 677.5,-77.5" stroke="none"/>
<text font-family="arial" font-size="10.00" text-anchor="middle" x="604.5" y="-65.5">MaskClassification.MaskType</text>
</a>
</g>
</g>
<!-- Activity.Trace -->
<g class="node" id="node25"><title>Activity.Trace</title>
<g id="a_node25"><a xlink:title="→ Activity
→ Fluorescence.Trace
------------------------------
activity_trace       
">
<polygon fill="none" points="186,-19 111,-19 111,-0 186,-0 186,-19" stroke="none"/>
<text font-family="arial" font-size="10.00" text-anchor="middle" x="148.5" y="-7">Activity.Trace</text>
</a>
</g>
</g>
<!-- Fluorescence.Trace&#45;&gt;Activity.Trace -->
<g class="edge" id="edge5"><title>Fluorescence.Trace-&gt;Activity.Trace</title>
<path d="M229.92,-58.4189C211.876,-47.7994 181.324,-29.8185 163.218,-19.1619" fill="none" stroke="#000000" stroke-opacity="0.250980" stroke-width="0.75"/>
</g>
<!-- Subject -->
<g class="node" id="node8"><title>Subject</title>
<g id="a_node8"><a xlink:title="subject              
------------------------------
sex                  
subject_birth_date   
subject_description=&quot;&quot; 
">
<polygon fill="#00ff00" fill-opacity="0.188235" points="528.5,-569 472.5,-569 472.5,-534 528.5,-534 528.5,-569" stroke="#00ff00" stroke-opacity="0.188235"/>
<text fill="darkgreen" font-family="arial" font-size="12.00" text-anchor="start" text-decoration="underline" x="480.5" y="-549.4">Subject</text>
</a>
</g>
</g>
<!-- Session -->
<g class="node" id="node27"><title>Session</title>
<g id="a_node27"><a xlink:title="→ Subject
session_datetime     
">
<polygon fill="#00ff00" fill-opacity="0.188235" points="530,-498 471,-498 471,-463 530,-463 530,-498" stroke="#00ff00" stroke-opacity="0.188235"/>
<text fill="darkgreen" font-family="arial" font-size="12.00" text-anchor="start" text-decoration="underline" x="479" y="-478.4">Session</text>
</a>
</g>
</g>
<!-- Subject&#45;&gt;Session -->
<g class="edge" id="edge6"><title>Subject-&gt;Session</title>
<path d="M500.5,-533.797C500.5,-522.949 500.5,-508.867 500.5,-498.049" fill="none" stroke="#000000" stroke-opacity="0.250980" stroke-width="0.75"/>
</g>
<!-- ProcessingMethod -->
<g class="node" id="node9"><title>ProcessingMethod</title>
<g id="a_node9"><a xlink:title="processing_method    
------------------------------
processing_method_desc 
">
<polygon fill="#000000" fill-opacity="0.125490" points="447.5,-569 349.5,-569 349.5,-534 447.5,-534 447.5,-569" stroke="none"/>
<text font-family="arial" font-size="10.00" text-anchor="start" text-decoration="underline" x="357.5" y="-550">ProcessingMethod</text>
</a>
</g>
</g>
<!-- ProcessingParamSet -->
<g class="node" id="node15"><title>ProcessingParamSet</title>
<g id="a_node15"><a xlink:title="paramset_idx         
------------------------------
→ ProcessingMethod
paramset_desc        
param_set_hash       
params               
UNIQUE INDEX (param_set_hash)
">
<polygon fill="#000000" fill-opacity="0.125490" points="453,-498 344,-498 344,-463 453,-463 453,-498" stroke="none"/>
<text font-family="arial" font-size="10.00" text-anchor="start" text-decoration="underline" x="352" y="-479">ProcessingParamSet</text>
</a>
</g>
</g>
<!-- ProcessingMethod&#45;&gt;ProcessingParamSet -->
<g class="edge" id="edge7"><title>ProcessingMethod-&gt;ProcessingParamSet</title>
<path d="M398.5,-533.797C398.5,-522.949 398.5,-508.867 398.5,-498.049" fill="none" stroke="#000000" stroke-dasharray="5,2" stroke-opacity="0.250980" stroke-width="0.75"/>
</g>
<!-- MaskType -->
<g class="node" id="node10"><title>MaskType</title>
<g id="a_node10"><a xlink:title="mask_type            
">
<polygon fill="#000000" fill-opacity="0.125490" points="528.5,-152 466.5,-152 466.5,-117 528.5,-117 528.5,-152" stroke="none"/>
<text font-family="arial" font-size="10.00" text-anchor="start" text-decoration="underline" x="474.5" y="-133">MaskType</text>
</a>
</g>
</g>
<!-- MaskType&#45;&gt;MaskClassification.MaskType -->
<g class="edge" id="edge8"><title>MaskType-&gt;MaskClassification.MaskType</title>
<path d="M525.055,-116.89C545.86,-104.348 573.573,-87.643 590.167,-77.6402" fill="none" stroke="#000000" stroke-dasharray="5,2" stroke-opacity="0.250980" stroke-width="0.75"/>
</g>
<!-- Processing -->
<g class="node" id="node11"><title>Processing</title>
<g id="a_node11"><a xlink:title="→ ProcessingTask
------------------------------
processing_time      
">
<ellipse cx="292.5" cy="-338.5" fill="#ff0000" fill-opacity="0.125490" rx="13" ry="13" stroke="#ff0000" stroke-opacity="0.125490"/>
<text fill="#7f0000" font-family="arial" font-size="12.00" text-anchor="middle" x="292.5" y="-335.4">Processing</text>
</a>
</g>
</g>
<!-- Processing&#45;&gt;MotionCorrection -->
<g class="edge" id="edge9"><title>Processing-&gt;MotionCorrection</title>
<path d="M302.825,-330.376C318.494,-319.564 348.672,-298.741 369.67,-284.253" fill="none" stroke="#000000" stroke-opacity="0.250980" stroke-width="2"/>
</g>
<!-- Curation -->
<g class="node" id="node17"><title>Curation</title>
<g id="a_node17"><a xlink:title="→ Processing
curation_id          
------------------------------
curation_time        
curation_output_dir  
manual_curation      
curation_note=&quot;&quot;     
">
<polygon fill="#00ff00" fill-opacity="0.188235" points="538,-285 477,-285 477,-250 538,-250 538,-285" stroke="#00ff00" stroke-opacity="0.188235"/>
<text fill="darkgreen" font-family="arial" font-size="12.00" text-anchor="start" text-decoration="underline" x="485" y="-265.4">Curation</text>
</a>
</g>
</g>
<!-- Processing&#45;&gt;Curation -->
<g class="edge" id="edge10"><title>Processing-&gt;Curation</title>
<path d="M304.405,-333.078C313.863,-329.624 327.456,-324.79 339.5,-321 396.279,-303.132 412.308,-304.637 468.5,-285 471.276,-284.03 474.137,-282.96 476.988,-281.845" fill="none" stroke="#000000" stroke-opacity="0.250980" stroke-width="0.75"/>
</g>
<!-- Processing.Field -->
<g class="node" id="node24"><title>Processing.Field</title>
<g id="a_node24"><a xlink:title="→ Processing
processing_field_idx 
">
<polygon fill="none" points="308,-277 219,-277 219,-258 308,-258 308,-277" stroke="none"/>
<text font-family="arial" font-size="10.00" text-anchor="middle" x="263.5" y="-265">Processing.Field</text>
</a>
</g>
</g>
<!-- Processing&#45;&gt;Processing.Field -->
<g class="edge" id="edge11"><title>Processing-&gt;Processing.Field</title>
<path d="M287.711,-326.106C281.92,-312.326 272.303,-289.445 267.103,-277.073" fill="none" stroke="#000000" stroke-opacity="0.250980" stroke-width="0.75"/>
</g>
<!-- MotionCorrection&#45;&gt;MotionCorrection.Summary -->
<g class="edge" id="edge12"><title>MotionCorrection-&gt;MotionCorrection.Summary</title>
<path d="M367.142,-251.214C346.131,-238.548 317.023,-221.002 299.837,-210.642" fill="none" stroke="#000000" stroke-opacity="0.250980" stroke-width="0.75"/>
</g>
<!-- Segmentation -->
<g class="node" id="node16"><title>Segmentation</title>
<g id="a_node16"><a xlink:title="→ MotionCorrection
→ Curation
">
<ellipse cx="415.5" cy="-201" fill="#ff0000" fill-opacity="0.125490" rx="13" ry="13" stroke="#ff0000" stroke-opacity="0.125490"/>
<text fill="#7f0000" font-family="arial" font-size="12.00" text-anchor="middle" x="415.5" y="-197.9">Segmentation</text>
</a>
</g>
<!-- Processing&#45;&gt;MotionCorrection -->
<g class="edge" id="edge13"><title>Processing-&gt;MotionCorrection</title>
<path d="M317.119,-326.097C302.164,-316.153 274.145,-297.522 254.02,-284.139" fill="none" stroke="#000000" stroke-opacity="0.250980" stroke-width="2"/>
</g>
<!-- MotionCorrection&#45;&gt;Segmentation -->
<g class="edge" id="edge13"><title>MotionCorrection-&gt;Segmentation</title>
<path d="M398.423,-249.89C402.469,-238.543 407.731,-223.787 411.338,-213.671" fill="none" stroke="#000000" stroke-opacity="0.250980" stroke-width="0.75"/>
</g>
<!-- Segmentation.Mask&#45;&gt;MaskClassification.MaskType -->
<g class="edge" id="edge14"><title>Segmentation.Mask-&gt;MaskClassification.MaskType</title>
<path d="M424.121,-124.935C463.904,-112.598 536.919,-89.9567 576.765,-77.6005" fill="none" stroke="#000000" stroke-opacity="0.250980" stroke-width="0.75"/>
</g>
<!-- Segmentation.Mask&#45;&gt;Fluorescence.Trace -->
<g class="edge" id="edge15"><title>Segmentation.Mask-&gt;Fluorescence.Trace</title>
<path d="M376.316,-124.935C347.243,-112.598 293.886,-89.9567 264.768,-77.6005" fill="none" stroke="#000000" stroke-opacity="0.250980" stroke-width="0.75"/>
</g>
<!-- Fluorescence -->
<g class="node" id="node14"><title>Fluorescence</title>
<g id="a_node14"><a xlink:title="→ Segmentation
">
<ellipse cx="244.5" cy="-134.5" fill="#ff0000" fill-opacity="0.125490" rx="13" ry="13" stroke="#ff0000" stroke-opacity="0.125490"/>
<text fill="#7f0000" font-family="arial" font-size="12.00" text-anchor="middle" x="244.5" y="-131.4">Fluorescence</text>
</a>
</g>
</g>
<!-- Fluorescence&#45;&gt;Fluorescence.Trace -->
<g class="edge" id="edge16"><title>Fluorescence-&gt;Fluorescence.Trace</title>
<path d="M244.5,-121.368C244.5,-108.669 244.5,-89.0398 244.5,-77.768" fill="none" stroke="#000000" stroke-opacity="0.250980" stroke-width="0.75"/>
</g>
<!-- Fluorescence&#45;&gt;Activity -->
<g class="edge" id="edge17"><title>Fluorescence-&gt;Activity</title>
<path d="M233.86,-126.351C215.309,-113.887 177.275,-88.333 158.896,-75.985" fill="none" stroke="#000000" stroke-opacity="0.250980" stroke-width="0.75"/>
</g>
<!-- ProcessingTask -->
<g class="node" id="node18"><title>ProcessingTask</title>
<g id="a_node18"><a xlink:title="→ Session
→ ProcessingParamSet
scan_ids             
------------------------------
processing_output_dir 
task_mode=&quot;load&quot;     
">
<polygon fill="#00ff00" fill-opacity="0.188235" points="455,-427 354,-427 354,-392 455,-392 455,-427" stroke="#00ff00" stroke-opacity="0.188235"/>
<text fill="darkgreen" font-family="arial" font-size="12.00" text-anchor="start" text-decoration="underline" x="362" y="-407.4">ProcessingTask</text>
</a>
</g>
</g>
<!-- ProcessingParamSet&#45;&gt;ProcessingTask -->
<g class="edge" id="edge18"><title>ProcessingParamSet-&gt;ProcessingTask</title>
<path d="M399.952,-462.797C400.896,-451.949 402.12,-437.867 403.061,-427.049" fill="none" stroke="#000000" stroke-opacity="0.250980" stroke-width="0.75"/>
</g>
<!-- Segmentation&#45;&gt;Segmentation.Mask -->
<g class="edge" id="edge19"><title>Segmentation-&gt;Segmentation.Mask</title>
<path d="M412.015,-188.17C408.287,-175.514 402.459,-155.73 399.108,-144.354" fill="none" stroke="#000000" stroke-opacity="0.250980" stroke-width="0.75"/>
</g>
<!-- Segmentation&#45;&gt;Fluorescence -->
<g class="edge" id="edge20"><title>Segmentation-&gt;Fluorescence</title>
<path d="M403.476,-195.464C372.155,-183.65 288.301,-152.021 256.74,-140.117" fill="none" stroke="#000000" stroke-opacity="0.250980" stroke-width="2"/>
</g>
<!-- MaskClassification -->
<g class="node" id="node21"><title>MaskClassification</title>
<g id="a_node21"><a xlink:title="→ Segmentation
→ MaskClassificationMethod
">
<ellipse cx="604.5" cy="-134.5" fill="#ff0000" fill-opacity="0.125490" rx="13" ry="13" stroke="#ff0000" stroke-opacity="0.125490"/>
<text fill="#7f0000" font-family="arial" font-size="12.00" text-anchor="middle" x="604.5" y="-131.4">MaskClassification</text>
</a>
</g>
</g>
<!-- Segmentation&#45;&gt;MaskClassification -->
<g class="edge" id="edge21"><title>Segmentation-&gt;MaskClassification</title>
<path d="M427.61,-195.867C461.666,-184.245 558.016,-151.364 592.246,-139.682" fill="none" stroke="#000000" stroke-opacity="0.250980" stroke-width="0.75"/>
</g>
<!-- Curation&#45;&gt;Segmentation -->
<g class="edge" id="edge22"><title>Curation-&gt;Segmentation</title>
<path d="M483.808,-249.89C465.067,-236.751 439.809,-219.043 425.852,-209.258" fill="none" stroke="#000000" stroke-opacity="0.250980" stroke-width="2"/>
</g>
<!-- ProcessingTask&#45;&gt;Processing -->
<g class="edge" id="edge23"><title>ProcessingTask-&gt;Processing</title>
<path d="M377.673,-391.973C353.858,-377.301 320.277,-356.612 303.271,-346.136" fill="none" stroke="#000000" stroke-opacity="0.250980" stroke-width="2"/>
</g>
<!-- ProcessingTask.Scan -->
<g class="node" id="node20"><title>ProcessingTask.Scan</title>
<g id="a_node20"><a xlink:title="→ ProcessingTask
→ Scan
">
<polygon fill="none" points="460.5,-348 348.5,-348 348.5,-329 460.5,-329 460.5,-348" stroke="none"/>
<text font-family="arial" font-size="10.00" text-anchor="middle" x="404.5" y="-336">ProcessingTask.Scan</text>
</a>
</g>
</g>
<!-- ProcessingTask&#45;&gt;ProcessingTask.Scan -->
<g class="edge" id="edge24"><title>ProcessingTask-&gt;ProcessingTask.Scan</title>
<path d="M404.5,-391.797C404.5,-378.077 404.5,-359.185 404.5,-348.265" fill="none" stroke="#000000" stroke-opacity="0.250980" stroke-width="0.75"/>
</g>
<!-- ScanInfo -->
<g class="node" id="node19"><title>ScanInfo</title>
<g id="a_node19"><a xlink:title="→ Scan
------------------------------
nfields              
nchannels            
ndepths              
nframes              
nrois                
x                    
y                    
z                    
fps                  
bidirectional        
usecs_per_line=null  
fill_fraction=null   
">
<ellipse cx="517.5" cy="-338.5" fill="#00007f" fill-opacity="0.250980" rx="38.5016" ry="17.5" stroke="#00007f" stroke-opacity="0.250980"/>
<text fill="#00007f" font-family="arial" font-size="12.00" text-anchor="middle" x="517.5" y="-335.4">ScanInfo</text>
</a>
</g>
</g>
<!-- MaskClassification&#45;&gt;MaskClassification.MaskType -->
<g class="edge" id="edge25"><title>MaskClassification-&gt;MaskClassification.MaskType</title>
<path d="M604.5,-121.368C604.5,-108.669 604.5,-89.0398 604.5,-77.768" fill="none" stroke="#000000" stroke-opacity="0.250980" stroke-width="0.75"/>
</g>
<!-- Channel -->
<g class="node" id="node22"><title>Channel</title>
<g id="a_node22"><a xlink:title="channel              
">
<polygon fill="#000000" fill-opacity="0.125490" points="216.5,-427 164.5,-427 164.5,-392 216.5,-392 216.5,-427" stroke="none"/>
<text font-family="arial" font-size="10.00" text-anchor="start" text-decoration="underline" x="172.5" y="-408">Channel</text>
</a>
</g>
<!-- Segmentation&#45;&gt;MaskClassification -->
<g class="edge" id="edge28"><title>Segmentation-&gt;MaskClassification</title>
<path d="M350.859,-194.276C375.088,-182.067 431.613,-153.584 455.982,-141.304" fill="none" stroke="#000000" stroke-opacity="0.250980" stroke-width="0.75"/>
</g>
<!-- Channel&#45;&gt;16 -->
<g class="edge" id="edge27"><title>Channel-&gt;16</title>
<path d="M190.5,-391.95C190.5,-346.011 190.5,-219.259 190.5,-203.595" fill="none" stroke="#000000" stroke-dasharray="5,2" stroke-opacity="0.250980" stroke-width="0.75"/>
</g>
<!-- Channel&#45;&gt;15 -->
<g class="edge" id="edge26"><title>Channel-&gt;15</title>
<path d="M186.071,-391.952C183.309,-381.619 179.687,-368.037 176.5,-356 167.173,-320.773 155.862,-277.532 153.823,-269.734" fill="none" stroke="#000000" stroke-opacity="0.250980" stroke-width="0.75"/>
</g>
<!-- Channel&#45;&gt;17 -->
<g class="edge" id="edge28"><title>Channel-&gt;17</title>
<path d="M199.457,-391.797C209.038,-373.929 223.323,-347.29 226.744,-340.91" fill="none" stroke="#000000" stroke-dasharray="5,2" stroke-opacity="0.250980" stroke-width="0.75"/>
</g>
<!-- Activity&#45;&gt;Activity.Trace -->
<g class="edge" id="edge29"><title>Activity-&gt;Activity.Trace</title>
<path d="M148.5,-54.7403C148.5,-43.9652 148.5,-28.5623 148.5,-19.0639" fill="none" stroke="#000000" stroke-opacity="0.250980" stroke-width="0.75"/>
</g>
<!-- Processing.Field&#45;&gt;MotionCorrection.Summary -->
<g class="edge" id="edge30"><title>Processing.Field-&gt;MotionCorrection.Summary</title>
<path d="M266.467,-257.801C270.689,-245.422 278.384,-222.864 282.58,-210.561" fill="none" stroke="#000000" stroke-opacity="0.250980" stroke-width="2"/>
</g>
<!-- Scan -->
<g class="node" id="node26"><title>Scan</title>
<g id="a_node26"><a xlink:title="→ Session
scan_id              
------------------------------
→ Equipment
→ AcquisitionSoftware
scan_notes=&quot;&quot;        
">
<polygon fill="#00ff00" fill-opacity="0.188235" points="522.5,-427 478.5,-427 478.5,-392 522.5,-392 522.5,-427" stroke="#00ff00" stroke-opacity="0.188235"/>
<text fill="darkgreen" font-family="arial" font-size="12.00" text-anchor="middle" x="500.5" y="-406.4">Scan</text>
</a>
</g>
<!-- Session&#45;&gt;Scan -->
<g class="edge" id="edge32"><title>Session-&gt;Scan</title>
<path d="M263.892,-524.797C251.157,-513.949 234.626,-499.867 221.927,-489.049" fill="none" stroke="#000000" stroke-opacity="0.250980" stroke-width="0.75"/>
</g>
<!-- Scan&#45;&gt;ScanInfo -->
<g class="edge" id="edge31"><title>Scan-&gt;ScanInfo</title>
<path d="M504.615,-391.797C507.288,-380.949 510.757,-366.867 513.423,-356.049" fill="none" stroke="#000000" stroke-opacity="0.250980" stroke-width="2"/>
</g>
<!-- Scan&#45;&gt;ProcessingTask.Scan -->
<g class="edge" id="edge32"><title>Scan-&gt;ProcessingTask.Scan</title>
<path d="M478.234,-392.497C458.959,-378.642 431.823,-359.138 416.416,-348.065" fill="none" stroke="#000000" stroke-opacity="0.250980" stroke-width="0.75"/>
</g>
<!-- Session&#45;&gt;ProcessingTask -->
<g class="edge" id="edge33"><title>Session-&gt;ProcessingTask</title>
<path d="M477.261,-462.797C462.167,-451.949 442.576,-437.867 427.525,-427.049" fill="none" stroke="#000000" stroke-opacity="0.250980" stroke-width="0.75"/>
</g>
<!-- Session&#45;&gt;Scan -->
<g class="edge" id="edge34"><title>Session-&gt;Scan</title>
<path d="M500.5,-462.797C500.5,-451.949 500.5,-437.867 500.5,-427.049" fill="none" stroke="#000000" stroke-opacity="0.250980" stroke-width="0.75"/>
</g>
</g>
</svg>