<svg xmlns="http://www.w3.org/2000/svg" xmlns:xlink="http://www.w3.org/1999/xlink" width="1269pt" height="799pt" viewBox="0.00 0.00 1269.00 799.00">
<g id="graph0" class="graph" transform="scale(1 1) rotate(0) translate(4 795)">
<title>%3</title>
<polygon fill="white" stroke="transparent" points="-4,4 -4,-795 1265,-795 1265,4 -4,4"/>
<!-- 3 -->
<g id="node1" class="node">
<title>3</title>
<ellipse fill="#ff8800" fill-opacity="0.501961" stroke="#ff8800" stroke-opacity="0.501961" cx="216" cy="-205.5" rx="2" ry="2"/>
<text text-anchor="middle" x="216" y="-205.2" font-family="arial" font-size="1.00" fill="#ff8800" fill-opacity="0.501961">3</text>
</g>
<!-- Fluorescence.Trace -->
<g id="node27" class="node">
<title>Fluorescence.Trace</title>
<g id="a_node27"><a xlink:title="→ Fluorescence→ Segmentation.Mask→ Channel.proj(fluo_channel=&quot;channel&quot;)------------------------------fluorescence         neuropil_fluorescence=null ">
<polygon fill="transparent" stroke="transparent" points="211.5,-77.5 108.5,-77.5 108.5,-58.5 211.5,-58.5 211.5,-77.5"/>
<text text-anchor="middle" x="160" y="-65.5" font-family="arial" font-size="10.00">Fluorescence.Trace</text>
</a>
</g>
</g>
<!-- 3&#45;&gt;Fluorescence.Trace -->
<g id="edge1" class="edge">
<title>3-&gt;Fluorescence.Trace</title>
<path fill="none" stroke="#000000" stroke-width="0.75" stroke-opacity="0.250980" d="M214.77,-203.34C209.25,-198.05 186.48,-175.43 176,-152 164.61,-126.55 161.31,-93.16 160.37,-77.63"/>
</g>
<!-- 5 -->
<g id="node2" class="node">
<title>5</title>
<ellipse fill="#ff8800" fill-opacity="0.501961" stroke="#ff8800" stroke-opacity="0.501961" cx="610" cy="-276.5" rx="2" ry="2"/>
<text text-anchor="middle" x="610" y="-276.2" font-family="arial" font-size="1.00" fill="#ff8800" fill-opacity="0.501961">5</text>
</g>
<!-- MotionCorrection -->
<g id="node34" class="node">
<title>MotionCorrection</title>
<g id="a_node34"><a xlink:title="→ Curation------------------------------→ Channel.proj(motion_correct_channel=&quot;channel&quot;)">
<ellipse fill="#00007f" fill-opacity="0.250980" stroke="#00007f" stroke-opacity="0.250980" cx="992" cy="-205.5" rx="67.5" ry="17.5"/>
<text text-anchor="middle" x="992" y="-202.4" font-family="arial" font-size="12.00" fill="#00007f" fill-opacity="0.627451">MotionCorrection</text>
</a>
</g>
</g>
<!-- 5&#45;&gt;MotionCorrection -->
<g id="edge2" class="edge">
<title>5-&gt;MotionCorrection</title>
<path fill="none" stroke="#000000" stroke-width="0.75" stroke-dasharray="5,2" stroke-opacity="0.250980" d="M611.04,-274.72C614.66,-272.02 627.17,-263.08 639,-259 735.34,-225.74 853.62,-213.54 925.87,-209.08"/>
</g>
<!-- 4 -->
<g id="node3" class="node">
<title>4</title>
<ellipse fill="#ff8800" fill-opacity="0.501961" stroke="#ff8800" stroke-opacity="0.501961" cx="367" cy="-276.5" rx="2" ry="2"/>
<text text-anchor="middle" x="367" y="-276.2" font-family="arial" font-size="1.00" fill="#ff8800" fill-opacity="0.501961">4</text>
</g>
<!-- Segmentation.Mask -->
<g id="node17" class="node">
<title>Segmentation.Mask</title>
<g id="a_node17"><a xlink:title="→ Segmentationmask                 ------------------------------→ Channel.proj(segmentation_channel=&quot;channel&quot;)mask_npix            mask_center_x        mask_center_y        mask_center_z=null   mask_xpix            mask_ypix            mask_zpix=null       mask_weights         ">
<polygon fill="transparent" stroke="transparent" points="435,-144 331,-144 331,-125 435,-125 435,-144"/>
<text text-anchor="start" x="339" y="-133" font-family="arial" text-decoration="underline" font-size="10.00">Segmentation.Mask</text>
</a>
</g>
</g>
<!-- 4&#45;&gt;Segmentation.Mask -->
<g id="edge3" class="edge">
<title>4-&gt;Segmentation.Mask</title>
<path fill="none" stroke="#000000" stroke-width="0.75" stroke-dasharray="5,2" stroke-opacity="0.250980" d="M365.7,-274.38C359.86,-269.23 335.99,-247.15 328,-223 323.11,-208.23 321.88,-202.3 328,-188 336.26,-168.7 355.47,-153.12 368.85,-144.09"/>
</g>
<!-- MaskClassification -->
<g id="node4" class="node">
<title>MaskClassification</title>
<g id="a_node4"><a xlink:title="→ Segmentation→ MaskClassificationMethod">
<ellipse fill="#ff0000" fill-opacity="0.125490" stroke="#ff0000" stroke-opacity="0.125490" cx="512" cy="-134.5" rx="13" ry="13"/>
<text text-anchor="middle" x="512" y="-131.4" font-family="arial" font-size="12.00" fill="#7f0000" fill-opacity="0.627451">MaskClassification</text>
</a>
</g>
</g>
<!-- MaskClassification.MaskType -->
<g id="node43" class="node">
<title>MaskClassification.MaskType</title>
<g id="a_node43"><a xlink:title="→ MaskClassification→ Segmentation.Mask------------------------------→ MaskTypeconfidence=null      ">
<polygon fill="transparent" stroke="transparent" points="586,-77.5 438,-77.5 438,-58.5 586,-58.5 586,-77.5"/>
<text text-anchor="middle" x="512" y="-65.5" font-family="arial" font-size="10.00">MaskClassification.MaskType</text>
</a>
</g>
</g>
<!-- MaskClassification&#45;&gt;MaskClassification.MaskType -->
<g id="edge4" class="edge">
<title>MaskClassification-&gt;MaskClassification.MaskType</title>
<path fill="none" stroke="#000000" stroke-width="0.75" stroke-opacity="0.250980" d="M512,-121.37C512,-108.67 512,-89.04 512,-77.77"/>
</g>
<!-- ProcessingTask -->
<g id="node5" class="node">
<title>ProcessingTask</title>
<g id="a_node5"><a xlink:title="→ Preprocess→ ProcessingParamSet------------------------------processing_output_dir task_mode=&quot;load&quot;     ">
<polygon fill="#00ff00" fill-opacity="0.188235" stroke="#00ff00" stroke-opacity="0.188235" points="983.5,-436 882.5,-436 882.5,-401 983.5,-401 983.5,-436"/>
<text text-anchor="middle" x="933" y="-415.4" font-family="arial" font-size="12.00" fill="darkgreen">ProcessingTask</text>
</a>
</g>
</g>
<!-- Processing -->
<g id="node36" class="node">
<title>Processing</title>
<g id="a_node36"><a xlink:title="→ ProcessingTask------------------------------processing_time      package_version=&quot;&quot;   ">
<ellipse fill="#ff0000" fill-opacity="0.125490" stroke="#ff0000" stroke-opacity="0.125490" cx="933" cy="-347.5" rx="13" ry="13"/>
<text text-anchor="middle" x="933" y="-344.4" font-family="arial" font-size="12.00" fill="#7f0000" fill-opacity="0.627451">Processing</text>
</a>
</g>
</g>
<!-- ProcessingTask&#45;&gt;Processing -->
<g id="edge5" class="edge">
<title>ProcessingTask-&gt;Processing</title>
<path fill="none" stroke="#000000" stroke-width="2" stroke-opacity="0.250980" d="M933,-400.8C933,-388.35 933,-371.66 933,-360.51"/>
</g>
<!-- ProcessingParamSet -->
<g id="node6" class="node">
<title>ProcessingParamSet</title>
<g id="a_node6"><a xlink:title="paramset_idx         ------------------------------→ ProcessingMethodparamset_desc        param_set_hash       params               UNIQUE INDEX (param_set_hash)">
<polygon fill="#000000" fill-opacity="0.125490" stroke="transparent" points="928.5,-507 819.5,-507 819.5,-472 928.5,-472 928.5,-507"/>
<text text-anchor="start" x="827.5" y="-488" font-family="arial" text-decoration="underline" font-size="10.00">ProcessingParamSet</text>
</a>
</g>
</g>
<!-- ProcessingParamSet&#45;&gt;ProcessingTask -->
<g id="edge6" class="edge">
<title>ProcessingParamSet-&gt;ProcessingTask</title>
<path fill="none" stroke="#000000" stroke-width="0.75" stroke-opacity="0.250980" d="M888.28,-471.8C897.56,-460.95 909.6,-446.87 918.85,-436.05"/>
</g>
<!-- AcquisitionSoftware -->
<g id="node7" class="node">
<title>AcquisitionSoftware</title>
<g id="a_node7"><a xlink:title="acq_software         ">
<polygon fill="#000000" fill-opacity="0.125490" stroke="transparent" points="1139,-720 1035,-720 1035,-685 1139,-685 1139,-720"/>
<text text-anchor="start" x="1043" y="-701" font-family="arial" text-decoration="underline" font-size="10.00">AcquisitionSoftware</text>
</a>
</g>
</g>
<!-- Scan -->
<g id="node15" class="node">
<title>Scan</title>
<g id="a_node15"><a xlink:title="→ session.Sessionscan_id              ------------------------------→ [nullable] Equipment→ AcquisitionSoftwarescan_notes=&quot;&quot;        ">
<polygon fill="#00ff00" fill-opacity="0.188235" stroke="#00ff00" stroke-opacity="0.188235" points="1109,-649 1065,-649 1065,-614 1109,-614 1109,-649"/>
<text text-anchor="start" x="1073" y="-629.4" font-family="arial" text-decoration="underline" font-size="12.00" fill="darkgreen">Scan</text>
</a>
</g>
</g>
<!-- AcquisitionSoftware&#45;&gt;Scan -->
<g id="edge7" class="edge">
<title>AcquisitionSoftware-&gt;Scan</title>
<path fill="none" stroke="#000000" stroke-width="0.75" stroke-dasharray="5,2" stroke-opacity="0.250980" d="M1087,-684.8C1087,-673.95 1087,-659.87 1087,-649.05"/>
</g>
<!-- MaskClassificationMethod -->
<g id="node8" class="node">
<title>MaskClassificationMethod</title>
<g id="a_node8"><a xlink:title="mask_classification_method ">
<polygon fill="#000000" fill-opacity="0.125490" stroke="transparent" points="579,-223 447,-223 447,-188 579,-188 579,-223"/>
<text text-anchor="start" x="455" y="-204" font-family="arial" text-decoration="underline" font-size="10.00">MaskClassificationMethod</text>
</a>
</g>
</g>
<!-- MaskClassificationMethod&#45;&gt;MaskClassification -->
<g id="edge8" class="edge">
<title>MaskClassificationMethod-&gt;MaskClassification</title>
<path fill="none" stroke="#000000" stroke-width="0.75" stroke-opacity="0.250980" d="M512.76,-187.8C512.58,-175.35 512.34,-158.66 512.17,-147.51"/>
</g>
<!-- ScanInfo -->
<g id="node9" class="node">
<title>ScanInfo</title>
<g id="a_node9"><a xlink:title="→ Scan------------------------------nfields              nchannels            ndepths              nframes              nrois                x=null               y=null               z=null               fps                  bidirectional        usecs_per_line=null  fill_fraction=null   scan_datetime=null   scan_duration=null   bidirectional_z=null ">
<ellipse fill="#00007f" fill-opacity="0.250980" stroke="#00007f" stroke-opacity="0.250980" cx="1101" cy="-489.5" rx="40" ry="17.5"/>
<text text-anchor="middle" x="1101" y="-486.4" font-family="arial" font-size="12.00" fill="#00007f" fill-opacity="0.627451">ScanInfo</text>
</a>
</g>
</g>
<!-- ScanInfo.Field -->
<g id="node21" class="node">
<title>ScanInfo.Field</title>
<g id="a_node21"><a xlink:title="→ ScanInfofield_idx            ------------------------------px_height            px_width             um_height=null       um_width=null        field_x=null         field_y=null         field_z=null         delay_image=null     roi=null             ">
<polygon fill="transparent" stroke="transparent" points="1087,-428 1007,-428 1007,-409 1087,-409 1087,-428"/>
<text text-anchor="start" x="1015" y="-417" font-family="arial" text-decoration="underline" font-size="10.00">ScanInfo.Field</text>
</a>
</g>
</g>
<!-- ScanInfo&#45;&gt;ScanInfo.Field -->
<g id="edge9" class="edge">
<title>ScanInfo-&gt;ScanInfo.Field</title>
<path fill="none" stroke="#000000" stroke-width="0.75" stroke-opacity="0.250980" d="M1088.48,-472.5C1077.63,-458.64 1062.37,-439.14 1053.7,-428.06"/>
</g>
<!-- ScanInfo.ScanFile -->
<g id="node38" class="node">
<title>ScanInfo.ScanFile</title>
<g id="a_node38"><a xlink:title="→ ScanInfofile_path            ">
<polygon fill="transparent" stroke="transparent" points="1202.5,-428 1105.5,-428 1105.5,-409 1202.5,-409 1202.5,-428"/>
<text text-anchor="start" x="1113.5" y="-417" font-family="arial" text-decoration="underline" font-size="10.00">ScanInfo.ScanFile</text>
</a>
</g>
</g>
<!-- ScanInfo&#45;&gt;ScanInfo.ScanFile -->
<g id="edge10" class="edge">
<title>ScanInfo-&gt;ScanInfo.ScanFile</title>
<path fill="none" stroke="#000000" stroke-width="0.75" stroke-opacity="0.250980" d="M1113.29,-472.5C1123.93,-458.64 1138.92,-439.14 1147.42,-428.06"/>
</g>
<!-- PreprocessMethod -->
<g id="node10" class="node">
<title>PreprocessMethod</title>
<g id="a_node10"><a xlink:title="preprocess_method    ------------------------------preprocess_method_desc ">
<polygon fill="#000000" fill-opacity="0.125490" stroke="transparent" points="641,-720 543,-720 543,-685 641,-685 641,-720"/>
<text text-anchor="start" x="551" y="-701" font-family="arial" text-decoration="underline" font-size="10.00">PreprocessMethod</text>
</a>
</g>
</g>
<!-- PreprocessParamSet -->
<g id="node13" class="node">
<title>PreprocessParamSet</title>
<g id="a_node13"><a xlink:title="paramset_idx         ------------------------------→ PreprocessMethodparamset_desc        param_set_hash       params               UNIQUE INDEX (param_set_hash)">
<polygon fill="#000000" fill-opacity="0.125490" stroke="transparent" points="647,-649 537,-649 537,-614 647,-614 647,-649"/>
<text text-anchor="start" x="545" y="-630" font-family="arial" text-decoration="underline" font-size="10.00">PreprocessParamSet</text>
</a>
</g>
</g>
<!-- PreprocessMethod&#45;&gt;PreprocessParamSet -->
<g id="edge11" class="edge">
<title>PreprocessMethod-&gt;PreprocessParamSet</title>
<path fill="none" stroke="#000000" stroke-width="0.75" stroke-dasharray="5,2" stroke-opacity="0.250980" d="M592,-684.8C592,-673.95 592,-659.87 592,-649.05"/>
</g>
<!-- PreprocessParamSteps -->
<g id="node11" class="node">
<title>PreprocessParamSteps</title>
<g id="a_node11"><a xlink:title="preprocess_param_steps_id ------------------------------preprocess_param_steps_name preprocess_param_steps_desc ">
<polygon fill="#00ff00" fill-opacity="0.188235" stroke="#00ff00" stroke-opacity="0.188235" points="808.5,-649 665.5,-649 665.5,-614 808.5,-614 808.5,-649"/>
<text text-anchor="start" x="673.5" y="-629.4" font-family="arial" text-decoration="underline" font-size="12.00" fill="darkgreen">PreprocessParamSteps</text>
</a>
</g>
</g>
<!-- PreprocessParamSteps.Step -->
<g id="node37" class="node">
<title>PreprocessParamSteps.Step</title>
<g id="a_node37"><a xlink:title="→ PreprocessParamStepsstep_number          ------------------------------→ PreprocessParamSet">
<polygon fill="transparent" stroke="transparent" points="808.5,-570 665.5,-570 665.5,-551 808.5,-551 808.5,-570"/>
<text text-anchor="start" x="673.5" y="-559" font-family="arial" text-decoration="underline" font-size="10.00">PreprocessParamSteps.Step</text>
</a>
</g>
</g>
<!-- PreprocessParamSteps&#45;&gt;PreprocessParamSteps.Step -->
<g id="edge12" class="edge">
<title>PreprocessParamSteps-&gt;PreprocessParamSteps.Step</title>
<path fill="none" stroke="#000000" stroke-width="0.75" stroke-opacity="0.250980" d="M737,-613.8C737,-600.08 737,-581.19 737,-570.27"/>
</g>
<!-- PreprocessTask -->
<g id="node44" class="node">
<title>PreprocessTask</title>
<g id="a_node44"><a xlink:title="→ Scan→ PreprocessParamSteps------------------------------preprocess_output_dir task_mode=&quot;none&quot;     ">
<polygon fill="#00ff00" fill-opacity="0.188235" stroke="#00ff00" stroke-opacity="0.188235" points="1046,-578 944,-578 944,-543 1046,-543 1046,-578"/>
<text text-anchor="middle" x="995" y="-557.4" font-family="arial" font-size="12.00" fill="darkgreen">PreprocessTask</text>
</a>
</g>
</g>
<!-- PreprocessParamSteps&#45;&gt;PreprocessTask -->
<g id="edge13" class="edge">
<title>PreprocessParamSteps-&gt;PreprocessTask</title>
<path fill="none" stroke="#000000" stroke-width="0.75" stroke-opacity="0.250980" d="M799.57,-613.89C838.3,-603.59 889.05,-590.07 934,-578 937.18,-577.15 940.45,-576.27 943.75,-575.38"/>
</g>
<!-- Curation -->
<g id="node12" class="node">
<title>Curation</title>
<g id="a_node12"><a xlink:title="→ Processingcuration_id          ------------------------------curation_time        curation_output_dir  manual_curation      curation_note=&quot;&quot;     ">
<polygon fill="#00ff00" fill-opacity="0.188235" stroke="#00ff00" stroke-opacity="0.188235" points="964,-294 902,-294 902,-259 964,-259 964,-294"/>
<text text-anchor="start" x="910" y="-274.4" font-family="arial" text-decoration="underline" font-size="12.00" fill="darkgreen">Curation</text>
</a>
</g>
</g>
<!-- Curation&#45;&gt;MotionCorrection -->
<g id="edge14" class="edge">
<title>Curation-&gt;MotionCorrection</title>
<path fill="none" stroke="#000000" stroke-width="2" stroke-opacity="0.250980" d="M947.28,-258.8C956.56,-247.95 968.6,-233.87 977.85,-223.05"/>
</g>
<!-- Segmentation -->
<g id="node35" class="node">
<title>Segmentation</title>
<g id="a_node35"><a xlink:title="→ Curation">
<ellipse fill="#ff0000" fill-opacity="0.125490" stroke="#ff0000" stroke-opacity="0.125490" cx="383" cy="-205.5" rx="13" ry="13"/>
<text text-anchor="middle" x="383" y="-202.4" font-family="arial" font-size="12.00" fill="#7f0000" fill-opacity="0.627451">Segmentation</text>
</a>
</g>
</g>
<!-- Curation&#45;&gt;Segmentation -->
<g id="edge15" class="edge">
<title>Curation-&gt;Segmentation</title>
<path fill="none" stroke="#000000" stroke-width="2" stroke-opacity="0.250980" d="M901.78,-271.6C873.82,-268.15 831.7,-263.04 795,-259 636.49,-241.53 594.42,-254.05 438,-223 422.94,-220.01 406.1,-214.65 395.06,-210.85"/>
</g>
<!-- PreprocessParamSet&#45;&gt;PreprocessParamSteps.Step -->
<g id="edge16" class="edge">
<title>PreprocessParamSet-&gt;PreprocessParamSteps.Step</title>
<path fill="none" stroke="#000000" stroke-width="0.75" stroke-dasharray="5,2" stroke-opacity="0.250980" d="M626.73,-613.97C655.72,-600.18 695.89,-581.06 718.88,-570.12"/>
</g>
<!-- ScanQualityMetrics.Frames -->
<g id="node14" class="node">
<title>ScanQualityMetrics.Frames</title>
<g id="a_node14"><a xlink:title="→ ScanQualityMetrics→ Channel------------------------------min_intensity        mean_intensity       max_intensity        contrast             ">
<polygon fill="transparent" stroke="transparent" points="786,-286 648,-286 648,-267 786,-267 786,-286"/>
<text text-anchor="middle" x="717" y="-274" font-family="arial" font-size="10.00">ScanQualityMetrics.Frames</text>
</a>
</g>
</g>
<!-- Scan&#45;&gt;ScanInfo -->
<g id="edge17" class="edge">
<title>Scan-&gt;ScanInfo</title>
<path fill="none" stroke="#000000" stroke-width="2" stroke-opacity="0.250980" d="M1088.66,-613.89C1091.36,-586.95 1096.65,-534.02 1099.34,-507.09"/>
</g>
<!-- ScanLocation -->
<g id="node39" class="node">
<title>ScanLocation</title>
<g id="a_node39"><a xlink:title="→ Scan------------------------------→ `neuro_lab`.`#location`">
<polygon fill="#00ff00" fill-opacity="0.188235" stroke="#00ff00" stroke-opacity="0.188235" points="1205,-578 1115,-578 1115,-543 1205,-543 1205,-578"/>
<text text-anchor="middle" x="1160" y="-557.4" font-family="arial" font-size="12.00" fill="darkgreen">ScanLocation</text>
</a>
</g>
</g>
<!-- Scan&#45;&gt;ScanLocation -->
<g id="edge18" class="edge">
<title>Scan-&gt;ScanLocation</title>
<path fill="none" stroke="#000000" stroke-width="2" stroke-opacity="0.250980" d="M1104.67,-613.8C1116.15,-602.95 1131.05,-588.87 1142.49,-578.05"/>
</g>
<!-- Scan&#45;&gt;PreprocessTask -->
<g id="edge19" class="edge">
<title>Scan-&gt;PreprocessTask</title>
<path fill="none" stroke="#000000" stroke-width="0.75" stroke-opacity="0.250980" d="M1064.73,-613.8C1050.26,-602.95 1031.49,-588.87 1017.07,-578.05"/>
</g>
<!-- Activity.Trace -->
<g id="node16" class="node">
<title>Activity.Trace</title>
<g id="a_node16"><a xlink:title="→ Activity→ Fluorescence.Trace------------------------------activity_trace       ">
<polygon fill="transparent" stroke="transparent" points="101.5,-19 24.5,-19 24.5,0 101.5,0 101.5,-19"/>
<text text-anchor="middle" x="63" y="-7" font-family="arial" font-size="10.00">Activity.Trace</text>
</a>
</g>
</g>
<!-- Segmentation.Mask&#45;&gt;Fluorescence.Trace -->
<g id="edge20" class="edge">
<title>Segmentation.Mask-&gt;Fluorescence.Trace</title>
<path fill="none" stroke="#000000" stroke-width="0.75" stroke-opacity="0.250980" d="M353.39,-124.93C310.74,-112.6 232.46,-89.96 189.74,-77.6"/>
</g>
<!-- ProcessingQualityMetrics.Mask -->
<g id="node30" class="node">
<title>ProcessingQualityMetrics.Mask</title>
<g id="a_node30"><a xlink:title="→ ProcessingQualityMetrics→ Segmentation.Mask------------------------------mask_area=null       roundness            ">
<polygon fill="transparent" stroke="transparent" points="468.5,-19 313.5,-19 313.5,0 468.5,0 468.5,-19"/>
<text text-anchor="middle" x="391" y="-7" font-family="arial" font-size="10.00">ProcessingQualityMetrics.Mask</text>
</a>
</g>
</g>
<!-- Segmentation.Mask&#45;&gt;ProcessingQualityMetrics.Mask -->
<g id="edge21" class="edge">
<title>Segmentation.Mask-&gt;ProcessingQualityMetrics.Mask</title>
<path fill="none" stroke="#000000" stroke-width="2" stroke-opacity="0.250980" d="M384.7,-125C386.68,-114.65 389.82,-96.63 391,-81 392.68,-58.79 391.97,-32.53 391.42,-19.2"/>
</g>
<!-- Segmentation.Mask&#45;&gt;MaskClassification.MaskType -->
<g id="edge22" class="edge">
<title>Segmentation.Mask-&gt;MaskClassification.MaskType</title>
<path fill="none" stroke="#000000" stroke-width="0.75" stroke-opacity="0.250980" d="M400.13,-124.93C424.8,-112.6 470.09,-89.96 494.8,-77.6"/>
</g>
<!-- ProcessingMethod -->
<g id="node18" class="node">
<title>ProcessingMethod</title>
<g id="a_node18"><a xlink:title="processing_method    ------------------------------processing_method_desc ">
<polygon fill="#000000" fill-opacity="0.125490" stroke="transparent" points="925,-578 827,-578 827,-543 925,-543 925,-578"/>
<text text-anchor="start" x="835" y="-559" font-family="arial" text-decoration="underline" font-size="10.00">ProcessingMethod</text>
</a>
</g>
</g>
<!-- ProcessingMethod&#45;&gt;ProcessingParamSet -->
<g id="edge23" class="edge">
<title>ProcessingMethod-&gt;ProcessingParamSet</title>
<path fill="none" stroke="#000000" stroke-width="0.75" stroke-dasharray="5,2" stroke-opacity="0.250980" d="M875.52,-542.8C875.2,-531.95 874.79,-517.87 874.48,-507.05"/>
</g>
<!-- ScanQualityMetrics -->
<g id="node19" class="node">
<title>ScanQualityMetrics</title>
<g id="a_node19"><a xlink:title="→ ScanInfo.Field">
<ellipse fill="#ff0000" fill-opacity="0.125490" stroke="#ff0000" stroke-opacity="0.125490" cx="717" cy="-347.5" rx="13" ry="13"/>
<text text-anchor="middle" x="717" y="-344.4" font-family="arial" font-size="12.00" fill="#7f0000" fill-opacity="0.627451">ScanQualityMetrics</text>
</a>
</g>
</g>
<!-- ScanQualityMetrics&#45;&gt;ScanQualityMetrics.Frames -->
<g id="edge24" class="edge">
<title>ScanQualityMetrics-&gt;ScanQualityMetrics.Frames</title>
<path fill="none" stroke="#000000" stroke-width="0.75" stroke-opacity="0.250980" d="M717,-334.48C717,-320.74 717,-298.56 717,-286.32"/>
</g>
<!-- MotionCorrection.RigidMotionCorrection -->
<g id="node20" class="node">
<title>MotionCorrection.RigidMotionCorrection</title>
<g id="a_node20"><a xlink:title="→ MotionCorrection------------------------------outlier_frames=null  y_shifts             x_shifts             z_shifts=null        y_std                x_std                z_std=null           ">
<polygon fill="transparent" stroke="transparent" points="1087.5,-144 896.5,-144 896.5,-125 1087.5,-125 1087.5,-144"/>
<text text-anchor="middle" x="992" y="-132" font-family="arial" font-size="10.00">MotionCorrection.RigidMotionCorrection</text>
</a>
</g>
</g>
<!-- ScanInfo.Field&#45;&gt;ScanQualityMetrics -->
<g id="edge25" class="edge">
<title>ScanInfo.Field-&gt;ScanQualityMetrics</title>
<path fill="none" stroke="#000000" stroke-width="2" stroke-opacity="0.250980" d="M1021.07,-408.95C1012.22,-406.2 1002.23,-403.28 993,-401 892.61,-376.19 769.21,-356.47 729.76,-350.42"/>
</g>
<!-- MotionCorrection.Summary -->
<g id="node32" class="node">
<title>MotionCorrection.Summary</title>
<g id="a_node32"><a xlink:title="→ MotionCorrection→ ScanInfo.Field------------------------------ref_image            average_image        correlation_image=null max_proj_image=null  ">
<polygon fill="transparent" stroke="transparent" points="1242,-144 1106,-144 1106,-125 1242,-125 1242,-144"/>
<text text-anchor="middle" x="1174" y="-132" font-family="arial" font-size="10.00">MotionCorrection.Summary</text>
</a>
</g>
</g>
<!-- ScanInfo.Field&#45;&gt;MotionCorrection.Summary -->
<g id="edge26" class="edge">
<title>ScanInfo.Field-&gt;MotionCorrection.Summary</title>
<path fill="none" stroke="#000000" stroke-width="0.75" stroke-opacity="0.250980" d="M1050.94,-408.75C1069.86,-366.73 1151.28,-185.94 1170.11,-144.15"/>
</g>
<!-- ProcessingQualityMetrics.Trace -->
<g id="node22" class="node">
<title>ProcessingQualityMetrics.Trace</title>
<g id="a_node22"><a xlink:title="→ ProcessingQualityMetrics→ Fluorescence.Trace------------------------------skewness             variance             ">
<polygon fill="transparent" stroke="transparent" points="295,-19 139,-19 139,0 295,0 295,-19"/>
<text text-anchor="middle" x="217" y="-7" font-family="arial" font-size="10.00">ProcessingQualityMetrics.Trace</text>
</a>
</g>
</g>
<!-- session.Session -->
<g id="node23" class="node">
<title>session.Session</title>
<g id="a_node23"><a xlink:title="→ subject.Subjectsession_datetime     ">
<polygon fill="#00ff00" fill-opacity="0.188235" stroke="#00ff00" stroke-opacity="0.188235" points="1261,-720 1157,-720 1157,-685 1261,-685 1261,-720"/>
<text text-anchor="start" x="1165" y="-700.4" font-family="arial" text-decoration="underline" font-size="12.00" fill="darkgreen">session.Session</text>
</a>
</g>
</g>
<!-- session.Session&#45;&gt;Scan -->
<g id="edge27" class="edge">
<title>session.Session-&gt;Scan</title>
<path fill="none" stroke="#000000" stroke-width="0.75" stroke-opacity="0.250980" d="M1179.78,-684.97C1158.07,-672.69 1128.9,-656.2 1109.11,-645"/>
</g>
<!-- MaskType -->
<g id="node24" class="node">
<title>MaskType</title>
<g id="a_node24"><a xlink:title="mask_type            ">
<polygon fill="#000000" fill-opacity="0.125490" stroke="transparent" points="651,-152 589,-152 589,-117 651,-117 651,-152"/>
<text text-anchor="start" x="597" y="-133" font-family="arial" text-decoration="underline" font-size="10.00">MaskType</text>
</a>
</g>
</g>
<!-- MaskType&#45;&gt;MaskClassification.MaskType -->
<g id="edge28" class="edge">
<title>MaskType-&gt;MaskClassification.MaskType</title>
<path fill="none" stroke="#000000" stroke-width="0.75" stroke-dasharray="5,2" stroke-opacity="0.250980" d="M592.19,-116.89C571.19,-104.35 543.22,-87.64 526.47,-77.64"/>
</g>
<!-- MotionCorrection.Block -->
<g id="node25" class="node">
<title>MotionCorrection.Block</title>
<g id="a_node25"><a xlink:title="→ MotionCorrection.NonRigidMotionCorrectionblock_id             ------------------------------block_y              block_x              block_z              y_shifts             x_shifts             z_shifts=null        y_std                x_std                z_std=null           ">
<polygon fill="transparent" stroke="transparent" points="833.5,-77.5 714.5,-77.5 714.5,-58.5 833.5,-58.5 833.5,-77.5"/>
<text text-anchor="start" x="722.5" y="-66.5" font-family="arial" text-decoration="underline" font-size="10.00">MotionCorrection.Block</text>
</a>
</g>
</g>
<!-- subject.Subject -->
<g id="node26" class="node">
<title>subject.Subject</title>
<g id="a_node26"><a xlink:title="subject              ------------------------------subject_nickname=&quot;&quot;  sex                  subject_birth_date   subject_description=&quot;&quot; ">
<polygon fill="#00ff00" fill-opacity="0.188235" stroke="#00ff00" stroke-opacity="0.188235" points="1258,-791 1160,-791 1160,-756 1258,-756 1258,-791"/>
<text text-anchor="start" x="1168" y="-771.4" font-family="arial" text-decoration="underline" font-size="12.00" fill="darkgreen">subject.Subject</text>
</a>
</g>
</g>
<!-- subject.Subject&#45;&gt;session.Session -->
<g id="edge29" class="edge">
<title>subject.Subject-&gt;session.Session</title>
<path fill="none" stroke="#000000" stroke-width="0.75" stroke-opacity="0.250980" d="M1209,-755.8C1209,-744.95 1209,-730.87 1209,-720.05"/>
</g>
<!-- Fluorescence.Trace&#45;&gt;Activity.Trace -->
<g id="edge30" class="edge">
<title>Fluorescence.Trace-&gt;Activity.Trace</title>
<path fill="none" stroke="#000000" stroke-width="0.75" stroke-opacity="0.250980" d="M145.27,-58.42C127.04,-47.8 96.17,-29.82 77.87,-19.16"/>
</g>
<!-- Fluorescence.Trace&#45;&gt;ProcessingQualityMetrics.Trace -->
<g id="edge31" class="edge">
<title>Fluorescence.Trace-&gt;ProcessingQualityMetrics.Trace</title>
<path fill="none" stroke="#000000" stroke-width="2" stroke-opacity="0.250980" d="M168.91,-58.17C179.68,-47.5 197.69,-29.65 208.34,-19.08"/>
</g>
<!-- ActivityExtractionMethod -->
<g id="node28" class="node">
<title>ActivityExtractionMethod</title>
<g id="a_node28"><a xlink:title="extraction_method    ">
<polygon fill="#000000" fill-opacity="0.125490" stroke="transparent" points="126,-152 0,-152 0,-117 126,-117 126,-152"/>
<text text-anchor="start" x="8" y="-133" font-family="arial" text-decoration="underline" font-size="10.00">ActivityExtractionMethod</text>
</a>
</g>
</g>
<!-- Activity -->
<g id="node31" class="node">
<title>Activity</title>
<g id="a_node31"><a xlink:title="→ Fluorescence→ ActivityExtractionMethod">
<ellipse fill="#ff0000" fill-opacity="0.125490" stroke="#ff0000" stroke-opacity="0.125490" cx="63" cy="-68" rx="13" ry="13"/>
<text text-anchor="middle" x="63" y="-64.9" font-family="arial" font-size="12.00" fill="#7f0000" fill-opacity="0.627451">Activity</text>
</a>
</g>
</g>
<!-- ActivityExtractionMethod&#45;&gt;Activity -->
<g id="edge32" class="edge">
<title>ActivityExtractionMethod-&gt;Activity</title>
<path fill="none" stroke="#000000" stroke-width="0.75" stroke-opacity="0.250980" d="M63,-116.89C63,-105.69 63,-91.17 63,-81.07"/>
</g>
<!-- Fluorescence -->
<g id="node29" class="node">
<title>Fluorescence</title>
<g id="a_node29"><a xlink:title="→ Segmentation">
<ellipse fill="#ff0000" fill-opacity="0.125490" stroke="#ff0000" stroke-opacity="0.125490" cx="230" cy="-134.5" rx="13" ry="13"/>
<text text-anchor="middle" x="230" y="-131.4" font-family="arial" font-size="12.00" fill="#7f0000" fill-opacity="0.627451">Fluorescence</text>
</a>
</g>
</g>
<!-- Fluorescence&#45;&gt;Fluorescence.Trace -->
<g id="edge33" class="edge">
<title>Fluorescence-&gt;Fluorescence.Trace</title>
<path fill="none" stroke="#000000" stroke-width="0.75" stroke-opacity="0.250980" d="M220.85,-125.07C207.51,-112.77 182.84,-90.05 169.38,-77.64"/>
</g>
<!-- Fluorescence&#45;&gt;Activity -->
<g id="edge34" class="edge">
<title>Fluorescence-&gt;Activity</title>
<path fill="none" stroke="#000000" stroke-width="0.75" stroke-opacity="0.250980" d="M217.99,-128.86C187.18,-116.96 105.59,-85.45 74.9,-73.6"/>
</g>
<!-- ProcessingQualityMetrics -->
<g id="node33" class="node">
<title>ProcessingQualityMetrics</title>
<g id="a_node33"><a xlink:title="→ Fluorescence">
<ellipse fill="#ff0000" fill-opacity="0.125490" stroke="#ff0000" stroke-opacity="0.125490" cx="306" cy="-68" rx="13" ry="13"/>
<text text-anchor="middle" x="306" y="-64.9" font-family="arial" font-size="12.00" fill="#7f0000" fill-opacity="0.627451">ProcessingQualityMetrics</text>
</a>
</g>
</g>
<!-- Fluorescence&#45;&gt;ProcessingQualityMetrics -->
<g id="edge35" class="edge">
<title>Fluorescence-&gt;ProcessingQualityMetrics</title>
<path fill="none" stroke="#000000" stroke-width="2" stroke-opacity="0.250980" d="M239.63,-125.33C254.16,-112.99 281.58,-89.73 296.21,-77.31"/>
</g>
<!-- Activity&#45;&gt;Activity.Trace -->
<g id="edge36" class="edge">
<title>Activity-&gt;Activity.Trace</title>
<path fill="none" stroke="#000000" stroke-width="0.75" stroke-opacity="0.250980" d="M63,-54.74C63,-43.97 63,-28.56 63,-19.06"/>
</g>
<!-- ProcessingQualityMetrics&#45;&gt;ProcessingQualityMetrics.Trace -->
<g id="edge37" class="edge">
<title>ProcessingQualityMetrics-&gt;ProcessingQualityMetrics.Trace</title>
<path fill="none" stroke="#000000" stroke-width="0.75" stroke-opacity="0.250980" d="M295.44,-60.3C279.23,-50.01 248.24,-30.33 230.44,-19.04"/>
</g>
<!-- ProcessingQualityMetrics&#45;&gt;ProcessingQualityMetrics.Mask -->
<g id="edge38" class="edge">
<title>ProcessingQualityMetrics-&gt;ProcessingQualityMetrics.Mask</title>
<path fill="none" stroke="#000000" stroke-width="0.75" stroke-opacity="0.250980" d="M316.42,-60.07C331.94,-49.76 361.09,-30.38 377.99,-19.15"/>
</g>
<!-- MotionCorrection&#45;&gt;MotionCorrection.RigidMotionCorrection -->
<g id="edge39" class="edge">
<title>MotionCorrection-&gt;MotionCorrection.RigidMotionCorrection</title>
<path fill="none" stroke="#000000" stroke-width="2" stroke-opacity="0.250980" d="M992,-187.8C992,-174.08 992,-155.19 992,-144.27"/>
</g>
<!-- MotionCorrection&#45;&gt;MotionCorrection.Summary -->
<g id="edge40" class="edge">
<title>MotionCorrection-&gt;MotionCorrection.Summary</title>
<path fill="none" stroke="#000000" stroke-width="0.75" stroke-opacity="0.250980" d="M1028.39,-190.7C1065.12,-176.78 1120.66,-155.72 1151.45,-144.05"/>
</g>
<!-- MotionCorrection.NonRigidMotionCorrection -->
<g id="node42" class="node">
<title>MotionCorrection.NonRigidMotionCorrection</title>
<g id="a_node42"><a xlink:title="→ MotionCorrection------------------------------outlier_frames=null  block_height         block_width          block_depth          block_count_y        block_count_x        block_count_z        ">
<polygon fill="transparent" stroke="transparent" points="878.5,-144 669.5,-144 669.5,-125 878.5,-125 878.5,-144"/>
<text text-anchor="middle" x="774" y="-132" font-family="arial" font-size="10.00">MotionCorrection.NonRigidMotionCorrection</text>
</a>
</g>
</g>
<!-- MotionCorrection&#45;&gt;MotionCorrection.NonRigidMotionCorrection -->
<g id="edge41" class="edge">
<title>MotionCorrection-&gt;MotionCorrection.NonRigidMotionCorrection</title>
<path fill="none" stroke="#000000" stroke-width="2" stroke-opacity="0.250980" d="M951,-191.52C907.09,-177.62 838.67,-155.97 801.05,-144.06"/>
</g>
<!-- Segmentation&#45;&gt;MaskClassification -->
<g id="edge42" class="edge">
<title>Segmentation-&gt;MaskClassification</title>
<path fill="none" stroke="#000000" stroke-width="0.75" stroke-opacity="0.250980" d="M394.45,-198.38C418.99,-185.25 476.41,-154.54 500.76,-141.51"/>
</g>
<!-- Segmentation&#45;&gt;Segmentation.Mask -->
<g id="edge43" class="edge">
<title>Segmentation-&gt;Segmentation.Mask</title>
<path fill="none" stroke="#000000" stroke-width="0.75" stroke-opacity="0.250980" d="M383,-192.48C383,-178.74 383,-156.56 383,-144.32"/>
</g>
<!-- Segmentation&#45;&gt;Fluorescence -->
<g id="edge44" class="edge">
<title>Segmentation-&gt;Fluorescence</title>
<path fill="none" stroke="#000000" stroke-width="2" stroke-opacity="0.250980" d="M371.5,-199.31C343.15,-186.53 270.13,-153.6 241.63,-140.75"/>
</g>
<!-- Processing&#45;&gt;Curation -->
<g id="edge45" class="edge">
<title>Processing-&gt;Curation</title>
<path fill="none" stroke="#000000" stroke-width="0.75" stroke-opacity="0.250980" d="M933,-334.48C933,-323.28 933,-306.49 933,-294.03"/>
</g>
<!-- Channel -->
<g id="node40" class="node">
<title>Channel</title>
<g id="a_node40"><a xlink:title="channel              ">
<polygon fill="#000000" fill-opacity="0.125490" stroke="transparent" points="625.5,-365 572.5,-365 572.5,-330 625.5,-330 625.5,-365"/>
<text text-anchor="start" x="580.5" y="-346" font-family="arial" text-decoration="underline" font-size="10.00">Channel</text>
</a>
</g>
</g>
<!-- Channel&#45;&gt;3 -->
<g id="edge46" class="edge">
<title>Channel-&gt;3</title>
<path fill="none" stroke="#000000" stroke-width="0.75" stroke-opacity="0.250980" d="M572.49,-344.21C525.77,-339.48 426.38,-326.21 349,-294 288.27,-268.72 225.51,-214.82 216.98,-207.36"/>
</g>
<!-- Channel&#45;&gt;5 -->
<g id="edge48" class="edge">
<title>Channel-&gt;5</title>
<path fill="none" stroke="#000000" stroke-width="0.75" stroke-dasharray="5,2" stroke-opacity="0.250980" d="M601.66,-329.8C604.51,-311.93 608.76,-285.29 609.78,-278.91"/>
</g>
<!-- Channel&#45;&gt;4 -->
<g id="edge47" class="edge">
<title>Channel-&gt;4</title>
<path fill="none" stroke="#000000" stroke-width="0.75" stroke-dasharray="5,2" stroke-opacity="0.250980" d="M572.39,-338.58C515.26,-321.59 384.73,-282.77 368.64,-277.99"/>
</g>
<!-- Channel&#45;&gt;ScanQualityMetrics.Frames -->
<g id="edge49" class="edge">
<title>Channel-&gt;ScanQualityMetrics.Frames</title>
<path fill="none" stroke="#000000" stroke-width="0.75" stroke-opacity="0.250980" d="M625.78,-330.84C649.44,-317.01 683.08,-297.34 702.2,-286.15"/>
</g>
<!-- Equipment -->
<g id="node41" class="node">
<title>Equipment</title>
<g id="a_node41"><a xlink:title="scanner              ">
<polygon fill="#00ff00" fill-opacity="0.188235" stroke="#00ff00" stroke-opacity="0.188235" points="1017,-720 943,-720 943,-685 1017,-685 1017,-720"/>
<text text-anchor="start" x="951" y="-700.4" font-family="arial" text-decoration="underline" font-size="12.00" fill="darkgreen">Equipment</text>
</a>
</g>
</g>
<!-- Equipment&#45;&gt;Scan -->
<g id="edge50" class="edge">
<title>Equipment-&gt;Scan</title>
<path fill="none" stroke="#000000" stroke-width="0.75" stroke-dasharray="5,2" stroke-opacity="0.250980" d="M1005.63,-684.97C1023.68,-673.33 1047.61,-657.9 1064.84,-646.79"/>
</g>
<!-- MotionCorrection.NonRigidMotionCorrection&#45;&gt;MotionCorrection.Block -->
<g id="edge51" class="edge">
<title>MotionCorrection.NonRigidMotionCorrection-&gt;MotionCorrection.Block</title>
<path fill="none" stroke="#000000" stroke-width="0.75" stroke-opacity="0.250980" d="M774,-124.8C774,-112.42 774,-89.86 774,-77.56"/>
</g>
<!-- Preprocess -->
<g id="node45" class="node">
<title>Preprocess</title>
<g id="a_node45"><a xlink:title="→ PreprocessTask------------------------------preprocess_time=null package_version=&quot;&quot;   ">
<ellipse fill="#00007f" fill-opacity="0.250980" stroke="#00007f" stroke-opacity="0.250980" cx="995" cy="-489.5" rx="48.25" ry="17.5"/>
<text text-anchor="middle" x="995" y="-486.4" font-family="arial" font-size="12.00" fill="#00007f" fill-opacity="0.627451">Preprocess</text>
</a>
</g>
</g>
<!-- PreprocessTask&#45;&gt;Preprocess -->
<g id="edge52" class="edge">
<title>PreprocessTask-&gt;Preprocess</title>
<path fill="none" stroke="#000000" stroke-width="2" stroke-opacity="0.250980" d="M995,-542.8C995,-531.95 995,-517.87 995,-507.05"/>
</g>
<!-- Preprocess&#45;&gt;ProcessingTask -->
<g id="edge53" class="edge">
<title>Preprocess-&gt;ProcessingTask</title>
<path fill="none" stroke="#000000" stroke-width="0.75" stroke-opacity="0.250980" d="M980.62,-472.5C970.89,-461.67 958.06,-447.39 948.17,-436.38"/>
</g>
</g>
</svg>